<svg xmlns="http://www.w3.org/2000/svg" width="81.644" height="61.644" viewBox="0 0 81.644 61.644">
  <g id="dashboard" transform="translate(-703.356 -2327)">
    <g id="Icon" transform="translate(398 67)">
      <rect id="Rectangle_25" data-name="Rectangle 25" width="52" height="54" rx="5" transform="translate(335 2260)" fill="#93a5ff" opacity="0.15"/>
    </g>
    <g id="Group_146" data-name="Group 146" transform="translate(-205.644 1179)">
      <g id="_002-globe" data-name="002-globe" transform="translate(932.902 1177.902)">
        <g id="Group_9" data-name="Group 9" transform="translate(0 0)">
          <g id="Group_8" data-name="Group 8">
            <path id="Path_18" data-name="Path 18" d="M421.133,238.934h-2a1,1,0,1,0,0,2h2a1,1,0,0,0,0-2Z" transform="translate(-397.393 -236.939)" fill="#93a5ff"/>
            <path id="Path_19" data-name="Path 19" d="M369.933,238.934h-2a1,1,0,0,0,0,2h2a1,1,0,0,0,0-2Z" transform="translate(-351.181 -236.939)" fill="#93a5ff"/>
            <path id="Path_20" data-name="Path 20" d="M224.867,221.867a3,3,0,1,0,3,3A3,3,0,0,0,224.867,221.867Zm0,4a1,1,0,1,1,1-1A1,1,0,0,1,224.867,225.868Z" transform="translate(-221.867 -221.867)" fill="#93a5ff"/>
            <path id="Path_21" data-name="Path 21" d="M421.133,341.334h-2a1,1,0,1,0,0,2h2a1,1,0,1,0,0-2Z" transform="translate(-397.393 -328.241)" fill="#93a5ff"/>
            <path id="Path_22" data-name="Path 22" d="M369.933,341.334h-2a1,1,0,1,0,0,2h2a1,1,0,1,0,0-2Z" transform="translate(-351.181 -328.241)" fill="#93a5ff"/>
            <path id="Path_23" data-name="Path 23" d="M224.867,324.267a3,3,0,1,0,3,3A3,3,0,0,0,224.867,324.267Zm0,4a1,1,0,1,1,1-1A1,1,0,0,1,224.867,328.267Z" transform="translate(-221.867 -313.235)" fill="#93a5ff"/>
            <path id="Path_24" data-name="Path 24" d="M421.133,443.734h-2a1,1,0,1,0,0,2h2a1,1,0,0,0,0-2Z" transform="translate(-397.393 -419.993)" fill="#93a5ff"/>
            <path id="Path_25" data-name="Path 25" d="M369.933,443.734h-2a1,1,0,1,0,0,2h2a1,1,0,1,0,0-2Z" transform="translate(-351.181 -419.993)" fill="#93a5ff"/>
            <path id="Path_26" data-name="Path 26" d="M224.867,426.667a3,3,0,1,0,3,3A3,3,0,0,0,224.867,426.667Zm0,4a1,1,0,1,1,1-1A1,1,0,0,1,224.867,430.668Z" transform="translate(-221.867 -404.927)" fill="#93a5ff"/>
          </g>
        </g>
      </g>
      <path id="Path_17" data-name="Path 17" d="M55.644,28.749V25.04A4.643,4.643,0,0,0,51.007,20.4h-8.37A21.246,21.246,0,0,0,36.963,6.84a.794.794,0,0,0-.071-.1c-.017-.016-.039-.021-.057-.035a21.28,21.28,0,0,0-31.012,0,.534.534,0,0,0-.057.035.783.783,0,0,0-.07.1,21.312,21.312,0,0,0,.024,29.034c.015.015.031.029.045.045A21.185,21.185,0,0,0,19.4,42.542a4.692,4.692,0,0,0,1.032,1.046,4.62,4.62,0,0,0-1.884,3.71v3.71a4.643,4.643,0,0,0,4.637,4.637H51.007a4.643,4.643,0,0,0,4.637-4.637V47.3a4.62,4.62,0,0,0-1.884-3.71,4.62,4.62,0,0,0,1.884-3.71v-3.71a4.62,4.62,0,0,0-1.884-3.71A4.621,4.621,0,0,0,55.644,28.749ZM40.758,20.4H33.373a35.612,35.612,0,0,0-1.2-8.539,21.3,21.3,0,0,0,4.036-3.072A19.369,19.369,0,0,1,40.758,20.4ZM34.948,7.432a19.429,19.429,0,0,1-3.339,2.61,19.221,19.221,0,0,0-4.18-7.195A19.489,19.489,0,0,1,34.948,7.432ZM22.257,1.948c3.178.577,5.98,4.081,7.651,9.037a19.533,19.533,0,0,1-7.651,1.974Zm0,12.867a21.383,21.383,0,0,0,8.187-2.034A33.442,33.442,0,0,1,31.506,20.4H22.257ZM20.4,1.948V12.959a19.535,19.535,0,0,1-7.651-1.974C14.423,6.028,17.224,2.524,20.4,1.948ZM11.154,20.4a33.434,33.434,0,0,1,1.062-7.622A21.385,21.385,0,0,0,20.4,14.814V20.4H11.154ZM19.5,22.258a4.589,4.589,0,0,0-.951,2.782v2.968a20.868,20.868,0,0,0-6.348,1.87,33.821,33.821,0,0,1-1.04-7.62ZM15.231,2.847a19.222,19.222,0,0,0-4.182,7.195A19.424,19.424,0,0,1,7.71,7.432,19.486,19.486,0,0,1,15.231,2.847ZM6.449,8.793a21.3,21.3,0,0,0,4.036,3.072,35.608,35.608,0,0,0-1.2,8.539H1.9A19.37,19.37,0,0,1,6.449,8.793ZM1.9,22.258H9.306a35.454,35.454,0,0,0,1.214,8.526,20.971,20.971,0,0,0-4.062,3.095A19.375,19.375,0,0,1,1.9,22.258ZM7.72,35.237a19.165,19.165,0,0,1,3.349-2.625,19.335,19.335,0,0,0,4.237,7.222A19.322,19.322,0,0,1,7.72,35.237Zm10.827.932v3.71c0,.058.015.111.017.169-2.382-1.309-4.479-4.278-5.843-8.339A19.021,19.021,0,0,1,18.7,29.876a4.627,4.627,0,0,0,1.7,2.559v.048A4.616,4.616,0,0,0,18.548,36.169ZM53.789,47.3v3.71a2.782,2.782,0,0,1-2.782,2.782H23.185A2.782,2.782,0,0,1,20.4,51.007V47.3a2.782,2.782,0,0,1,2.782-2.782H51.007A2.782,2.782,0,0,1,53.789,47.3Zm0-11.129v3.71a2.782,2.782,0,0,1-2.782,2.782H23.185A2.782,2.782,0,0,1,20.4,39.878v-3.71a2.782,2.782,0,0,1,2.782-2.782H51.007A2.782,2.782,0,0,1,53.789,36.169Zm0-7.419a2.782,2.782,0,0,1-2.782,2.782H23.185A2.782,2.782,0,0,1,20.4,28.749V25.04a2.782,2.782,0,0,1,2.782-2.782H51.007a2.782,2.782,0,0,1,2.782,2.782Z" transform="translate(909 1154)" fill="#93a5ff"/>
    </g>
  </g>
</svg>
