<svg xmlns="http://www.w3.org/2000/svg" width="66.778" height="64.059" viewBox="0 0 66.778 64.059">
  <g id="fix" transform="translate(-310.222 -2330)">
    <g id="Icon" transform="translate(-10 70)">
      <rect id="Rectangle_25" data-name="Rectangle 25" width="52" height="54" rx="5" transform="translate(335 2260)" fill="#93a5ff" opacity="0.15"/>
    </g>
    <path id="Path_1419" data-name="Path 1419" d="M46.142,3.356H45.3V2.243A2.245,2.245,0,0,0,43.061,0h-.549a2.245,2.245,0,0,0-2.243,2.243V3.356H33.558V2.243A2.245,2.245,0,0,0,31.315,0h-.549a2.245,2.245,0,0,0-2.243,2.243V3.356H21.813V2.243A2.245,2.245,0,0,0,19.57,0h-.549a2.245,2.245,0,0,0-2.243,2.243V3.356H10.067V2.243A2.245,2.245,0,0,0,7.825,0H7.276A2.245,2.245,0,0,0,5.034,2.243V3.356H4.195A4.2,4.2,0,0,0,0,7.551V46.142a4.2,4.2,0,0,0,4.195,4.195H46.142a4.2,4.2,0,0,0,4.195-4.195V7.551A4.2,4.2,0,0,0,46.142,3.356ZM41.947,2.243a.565.565,0,0,1,.565-.565h.549a.565.565,0,0,1,.565.565V5.308a.565.565,0,0,1-.565.565h-.549a.565.565,0,0,1-.565-.565Zm-11.745,0a.565.565,0,0,1,.565-.565h.549a.565.565,0,0,1,.565.565V5.308a.565.565,0,0,1-.565.565h-.549a.565.565,0,0,1-.565-.565Zm-11.745,0a.565.565,0,0,1,.565-.565h.549a.565.565,0,0,1,.565.565V5.308a.565.565,0,0,1-.565.565h-.549a.565.565,0,0,1-.565-.565Zm-11.745,0a.565.565,0,0,1,.565-.565h.549a.565.565,0,0,1,.565.565V5.308a.565.565,0,0,1-.565.565H7.276a.565.565,0,0,1-.565-.565Zm41.947,43.9a2.517,2.517,0,0,1-2.517,2.517H4.195a2.517,2.517,0,0,1-2.517-2.517V10.906H48.659V46.142Zm0-36.914H1.678V7.551A2.517,2.517,0,0,1,4.195,5.034h.839v.274A2.245,2.245,0,0,0,7.276,7.551h.549a2.245,2.245,0,0,0,2.243-2.243V5.034h6.712v.274a2.245,2.245,0,0,0,2.243,2.243h.549a2.245,2.245,0,0,0,2.243-2.243V5.034h6.712v.274a2.245,2.245,0,0,0,2.243,2.243h.549a2.245,2.245,0,0,0,2.243-2.243V5.034H40.27v.274a2.245,2.245,0,0,0,2.243,2.243h.549A2.245,2.245,0,0,0,45.3,5.308V5.034h.839a2.517,2.517,0,0,1,2.517,2.517V9.228Z" transform="translate(310.222 2343.722)" fill="#93a5ff"/>
    <path id="Path_1420" data-name="Path 1420" d="M88.751,137.951v1.169a.827.827,0,0,1-.827.827H86.751a2.466,2.466,0,0,0-1.755.727l-6.537,6.537a2.482,2.482,0,0,0,0,3.511l3.51,3.511a2.488,2.488,0,0,0,3.511,0l6.537-6.537a2.464,2.464,0,0,0,.728-1.756v-1.17a.827.827,0,0,1,.827-.827h1.17a2.464,2.464,0,0,0,1.756-.727l.137-.136,10.84,10.84a3.516,3.516,0,0,0,2.482,1.043,3.233,3.233,0,0,0,2.176-.827,3.31,3.31,0,0,0,.118-4.8l-12.7-12.691,6.937-6.937,4.042-2.891a.82.82,0,0,0,.207-.214l2.342-3.508a.827.827,0,0,0-.1-1.044l-2.342-2.342a.828.828,0,0,0-1.044-.1l-3.508,2.343a.81.81,0,0,0-.214.207l-2.89,4.04-6.938,6.938-3.178-3.175a7.447,7.447,0,0,0-9.963-9.243.828.828,0,0,0-.263,1.346l3.28,3.288a1.64,1.64,0,0,1,0,2.336,1.689,1.689,0,0,1-2.339,0L80.3,124.41a.827.827,0,0,0-1.346.264,7.455,7.455,0,0,0,9.243,9.964l1.421,1.421-.136.137A2.465,2.465,0,0,0,88.751,137.951Zm22.331,12.561a1.635,1.635,0,0,1,.486,1.206,1.661,1.661,0,0,1-.545,1.194,1.757,1.757,0,0,1-2.378-.161L97.684,141.79a2.483,2.483,0,0,0-.5-2.77l1.2-1.2ZM96.629,134.891l7.575-7.573c.017-.017.022-.039.037-.057s.036-.027.051-.047l2.839-3.973,2.818-1.882,1.382,1.382-1.882,2.818-3.972,2.841c-.02.014-.03.036-.048.051s-.039.021-.055.037l-9.362,9.361-1.171-1.171Zm-7.645-1.8a.828.828,0,0,0-.907-.174,5.8,5.8,0,0,1-7.974-6.358l2.307,2.3a3.31,3.31,0,1,0,4.679-4.678l-2.3-2.308a5.8,5.8,0,0,1,6.356,7.974.827.827,0,0,0,.178.906l3.552,3.552-1.2,1.2a2.553,2.553,0,0,0-2.762-.5Zm1.418,6.032V137.95a.827.827,0,0,1,.242-.585l.685-.685a.851.851,0,0,1,1.17,0l.579.579,2.342,2.342h0l.579.579a.827.827,0,0,1,0,1.171l-.685.685a.821.821,0,0,1-.578.252h-1.17a2.482,2.482,0,0,0-2.482,2.482v1.17a.82.82,0,0,1-.242.585l-6.537,6.537a.852.852,0,0,1-1.17,0l-3.512-3.512a.828.828,0,0,1,0-1.17l6.537-6.537a.819.819,0,0,1,.585-.242h1.17A2.483,2.483,0,0,0,90.4,139.119Z" transform="translate(240.716 2236.528)" fill="#93a5ff"/>
  </g>
</svg>
