<svg xmlns="http://www.w3.org/2000/svg" width="43" height="44" viewBox="0 0 43 44">
  <g id="insta" transform="translate(-198 -5694)">
    <path id="Icon_awesome-instagram" data-name="Icon awesome-instagram" d="M7.66,5.971A3.929,3.929,0,1,0,11.589,9.9,3.923,3.923,0,0,0,7.66,5.971Zm0,6.483A2.554,2.554,0,1,1,10.215,9.9,2.559,2.559,0,0,1,7.66,12.454ZM12.667,5.81a.916.916,0,1,1-.916-.916A.914.914,0,0,1,12.667,5.81Zm2.6.93a4.535,4.535,0,0,0-1.238-3.211A4.565,4.565,0,0,0,10.82,2.292c-1.265-.072-5.057-.072-6.323,0A4.558,4.558,0,0,0,1.286,3.526,4.55,4.55,0,0,0,.049,6.737C-.023,8-.023,11.794.049,13.06A4.535,4.535,0,0,0,1.286,16.27,4.571,4.571,0,0,0,4.5,17.508c1.265.072,5.057.072,6.323,0a4.535,4.535,0,0,0,3.211-1.238,4.565,4.565,0,0,0,1.238-3.211c.072-1.265.072-5.054,0-6.319Zm-1.635,7.677a2.586,2.586,0,0,1-1.457,1.457,16.889,16.889,0,0,1-4.517.308,17.02,17.02,0,0,1-4.517-.308,2.586,2.586,0,0,1-1.457-1.457A16.889,16.889,0,0,1,1.379,9.9a17.02,17.02,0,0,1,.308-4.517A2.586,2.586,0,0,1,3.143,3.926,16.889,16.889,0,0,1,7.66,3.618a17.02,17.02,0,0,1,4.517.308,2.586,2.586,0,0,1,1.457,1.457A16.889,16.889,0,0,1,13.942,9.9,16.879,16.879,0,0,1,13.634,14.417Z" transform="translate(210.601 5706.497)" fill="#fff"/>
    <g id="Ellipse_314" data-name="Ellipse 314" transform="translate(198 5694)" fill="none" stroke="#fff" stroke-width="2">
      <ellipse cx="21.5" cy="22" rx="21.5" ry="22" stroke="none"/>
      <ellipse cx="21.5" cy="22" rx="20.5" ry="21" fill="none"/>
    </g>
  </g>
</svg>
