<svg xmlns="http://www.w3.org/2000/svg" width="44" height="44" viewBox="0 0 44 44">
  <g id="linked" transform="translate(-313 -5694)">
    <g id="Ellipse_316" data-name="Ellipse 316" transform="translate(313 5694)" fill="none" stroke="#fff" stroke-width="2">
      <circle cx="22" cy="22" r="22" stroke="none"/>
      <circle cx="22" cy="22" r="21" fill="none"/>
    </g>
    <path id="Icon_awesome-linkedin-in" data-name="Icon awesome-linkedin-in" d="M3.423,15.292H.253V5.083h3.17ZM1.836,3.69A1.845,1.845,0,1,1,3.672,1.837,1.851,1.851,0,0,1,1.836,3.69Zm13.452,11.6H12.125v-4.97c0-1.184-.024-2.7-1.648-2.7-1.648,0-1.9,1.287-1.9,2.618v5.055H5.409V5.083H8.449V6.475h.044a3.331,3.331,0,0,1,3-1.649c3.208,0,3.8,2.113,3.8,4.857v5.608Z" transform="translate(327.443 5708.788)" fill="#fff"/>
  </g>
</svg>
