<svg xmlns="http://www.w3.org/2000/svg" width="783.045" height="667.851" viewBox="0 0 783.045 667.851">
  <g id="Mail_sent-amico" data-name="Mail sent-amico" transform="translate(-27.881 -92.305)">
    <g id="freepik--Floor--inject-26" transform="translate(27.881 284.758)">
      <path id="Path_1422" data-name="Path 1422" d="M138.645,588.832c147.694,92.825,387.135,92.825,534.811,0s147.694-243.335,0-336.16-387.135-92.825-534.811,0S-9.049,496.006,138.645,588.832Z" transform="translate(-27.881 -183.052)" fill="#fafafa"/>
    </g>
    <g id="freepik--Shadow--inject-26" transform="translate(467.078 546.769)">
      <path id="Path_1423" data-name="Path 1423" d="M303.1,324.691c-34.742,24.113-34.742,63.241,0,87.375s91.042,24.134,125.784,0,34.725-63.262,0-87.375S337.829,300.557,303.1,324.691Z" transform="translate(-277.048 -306.599)" fill="#ebebeb"/>
    </g>
    <g id="freepik--paper-planes--inject-26" transform="translate(56.028 113.144)">
      <path id="Path_1424" data-name="Path 1424" d="M84.31,170.433l93.069-34.823-71.6,59.678Z" transform="translate(-12.992 -64.61)" fill="#8c9efc"/>
      <path id="Path_1425" data-name="Path 1425" d="M189.772,138.244,89.529,158.136,68.06,133.26Z" transform="translate(-25.385 -67.244)" fill="#8c9efc"/>
      <path id="Path_1426" data-name="Path 1426" d="M80.24,155.5v29.839l7.174-14.909,93.069-34.823Z" transform="translate(-16.096 -64.61)" fill="#455a64"/>
      <path id="Path_1427" data-name="Path 1427" d="M80.24,166.939l14.33-6.617-7.156-8.292Z" transform="translate(-16.096 -46.207)" fill="#8c9efc"/>
      <path id="Path_1428" data-name="Path 1428" d="M84.31,152.03l7.156,8.292-2.291,1.039Z" transform="translate(-12.992 -46.207)" fill="#455a64"/>
      <path id="Path_1429" data-name="Path 1429" d="M72.073,160.179a1.384,1.384,0,0,1-1.3-1.187,1.728,1.728,0,0,1,.651-1.8,52.928,52.928,0,0,1,4.777-2.948,1.135,1.135,0,0,1,1.357.071,1.72,1.72,0,0,1,.589,1.472,1.6,1.6,0,0,1-.8,1.32c-1.534.891-3.1,1.845-4.636,2.884A1.225,1.225,0,0,1,72.073,160.179Z" transform="translate(-23.352 -43.943)" fill="#e0e0e0"/>
      <path id="Path_1430" data-name="Path 1430" d="M76.3,327.025a1.17,1.17,0,0,1-.758-.276,76.988,76.988,0,0,1-8.126-8.017,1.735,1.735,0,0,1-.585-1.593,1.512,1.512,0,0,1,.978-1.283,1.207,1.207,0,0,1,1.369.564,73.181,73.181,0,0,0,7.844,7.72,1.779,1.779,0,0,1,.489,1.783,1.37,1.37,0,0,1-1.264,1.1ZM62.482,311.586a1.229,1.229,0,0,1-1.022-.573,88.8,88.8,0,0,1-6.046-10.328,1.793,1.793,0,0,1,.449-2.2,1.209,1.209,0,0,1,1.824.541A86.813,86.813,0,0,0,63.5,309a1.822,1.822,0,0,1-.176,2.227A1.145,1.145,0,0,1,62.482,311.586Zm-9.924-19.3a1.33,1.33,0,0,1-1.216-.933,112.864,112.864,0,0,1-3.7-11.812,1.65,1.65,0,0,1,.9-1.878,1.277,1.277,0,0,1,1.621.945,110.021,110.021,0,0,0,3.525,11.431,1.889,1.889,0,0,1,.042,1.224,1.511,1.511,0,0,1-.694.9,1.061,1.061,0,0,1-.476.127Zm-5.729-21.653a1.417,1.417,0,0,1-1.287-1.294q-1.009-6.181-1.428-12.47a1.533,1.533,0,0,1,1.216-1.718,1.428,1.428,0,0,1,1.428,1.463q.389,6.1,1.375,12.11a1.835,1.835,0,0,1-.193,1.2,1.315,1.315,0,0,1-.847.669Zm-1.675-22.65h0a1.208,1.208,0,0,1-.935-.475,1.755,1.755,0,0,1-.369-1.137q.062-6.3.705-12.555a1.637,1.637,0,0,1,.76-1.422,1.146,1.146,0,0,1,1.395.2,1.784,1.784,0,0,1,.454,1.6q-.611,6.081-.67,12.215a1.466,1.466,0,0,1-1.34,1.569Zm2.15-22.586a.736.736,0,0,1-.3,0,1.617,1.617,0,0,1-1-1.887,114.9,114.9,0,0,1,2.961-12.11,1.52,1.52,0,0,1,.709-.938,1.119,1.119,0,0,1,1.054-.016,1.472,1.472,0,0,1,.772.857,1.915,1.915,0,0,1,.021,1.264,111.576,111.576,0,0,0-2.856,11.707,1.356,1.356,0,0,1-1.357,1.124Zm6.275-21.42a.949.949,0,0,1-.582-.17,1.5,1.5,0,0,1-.68-.9,1.862,1.862,0,0,1,.063-1.217,109.477,109.477,0,0,1,5.182-10.964,1.189,1.189,0,0,1,1.763-.445,1.773,1.773,0,0,1,.388,2.121A102.788,102.788,0,0,0,54.691,203a1.353,1.353,0,0,1-1.11.976Zm10.135-19.087a1.142,1.142,0,0,1-.811-.339,1.693,1.693,0,0,1-.5-1.071,1.825,1.825,0,0,1,.284-1.177,107.92,107.92,0,0,1,7.051-9.353,1.171,1.171,0,0,1,1.868,0,1.827,1.827,0,0,1,0,2.248,109.332,109.332,0,0,0-6.8,9.1,1.2,1.2,0,0,1-1.093.509ZM76.971,168.6a1.233,1.233,0,0,1-1-.573,1.848,1.848,0,0,1,.159-2.248,107.693,107.693,0,0,1,8.373-7.55,1.187,1.187,0,0,1,1.763.424,1.826,1.826,0,0,1-.353,2.227,102.324,102.324,0,0,0-8.161,7.359,1.252,1.252,0,0,1-.776.36Z" transform="translate(-43.85 -39.517)" fill="#e0e0e0"/>
      <path id="Path_1431" data-name="Path 1431" d="M71.76,244.762a1.064,1.064,0,0,1-.546-.148c-1.639-.891-3.261-1.845-4.812-2.863a1.738,1.738,0,0,1-.546-2.121,1.219,1.219,0,0,1,1.763-.657c1.516.976,3.085,1.909,4.671,2.778a1.7,1.7,0,0,1,.734,1.779,1.408,1.408,0,0,1-1.281,1.254Z" transform="translate(-27.182 51.038)" fill="#e0e0e0"/>
      <path id="Path_1432" data-name="Path 1432" d="M411.19,235.67l74.561-57.43,32.839,12.682Z" transform="translate(236.309 -16.832)" fill="#8c9efc"/>
      <path id="Path_1433" data-name="Path 1433" d="M411.19,249.993l64.443-64.64L461.3,165.46Z" transform="translate(236.309 -31.155)" fill="#8c9efc"/>
      <path id="Path_1434" data-name="Path 1434" d="M475.633,174.84v14.994L411.19,239.481Z" transform="translate(236.309 -20.643)" fill="#455a64"/>
      <path id="Path_1435" data-name="Path 1435" d="M535.664,250.072a1.16,1.16,0,0,1-.864-.4,1.85,1.85,0,0,1-.123-2.248,63.672,63.672,0,0,0,6.081-9.989,1.212,1.212,0,0,1,1.816-.573,1.786,1.786,0,0,1,.476,2.184,69.579,69.579,0,0,1-6.381,10.5A1.233,1.233,0,0,1,535.664,250.072Zm10.082-19.765a1.265,1.265,0,0,1-.476,0,1.471,1.471,0,0,1-.747-.87,1.89,1.89,0,0,1,.007-1.251,74.823,74.823,0,0,0,2.785-11.94,1.366,1.366,0,0,1,1.542-1.283,1.6,1.6,0,0,1,1.066,1.856,79.59,79.59,0,0,1-2.944,12.512,1.322,1.322,0,0,1-1.234.976Zm3.772-22.756h0a1.213,1.213,0,0,1-.924-.482,1.758,1.758,0,0,1-.363-1.13v-1.654a84.969,84.969,0,0,0-.705-10.752,1.6,1.6,0,0,1,1.111-1.824,1.414,1.414,0,0,1,1.516,1.336,89.356,89.356,0,0,1,.723,11.24V206a1.477,1.477,0,0,1-1.357,1.548Zm-2.662-22.989a1.367,1.367,0,0,1-1.251-1.145,90.583,90.583,0,0,0-3.79-11.6,1.863,1.863,0,0,1-.063-1.217,1.5,1.5,0,0,1,.68-.9,1.233,1.233,0,0,1,1.763.742,91.288,91.288,0,0,1,3.931,12.067,1.857,1.857,0,0,1-.1,1.208,1.385,1.385,0,0,1-.784.764A.857.857,0,0,1,546.857,184.562ZM538.678,163.5a1.256,1.256,0,0,1-1.11-.742,95.741,95.741,0,0,0-6.222-9.989,1.809,1.809,0,0,1-.318-1.159,1.72,1.72,0,0,1,.459-1.089,1.171,1.171,0,0,1,.955-.38,1.247,1.247,0,0,1,.9.55,97.559,97.559,0,0,1,6.451,10.349,1.852,1.852,0,0,1-.388,2.121,1.241,1.241,0,0,1-.723.318ZM526.34,145.668a1.186,1.186,0,0,1-.9-.445,102.926,102.926,0,0,0-7.985-8.059,1.812,1.812,0,0,1-.265-2.227,1.182,1.182,0,0,1,1.851-.318,102.259,102.259,0,0,1,8.214,8.292,1.823,1.823,0,0,1,.329,1.757,1.344,1.344,0,0,1-1.245,1Zm-15.458-14.124a1.168,1.168,0,0,1-.705-.255c-1.2-.891-2.45-1.781-3.719-2.651-1.763-1.188-3.525-2.375-5.394-3.5a1.591,1.591,0,0,1-.826-1.347,1.7,1.7,0,0,1,.633-1.49,1.136,1.136,0,0,1,1.391.017c1.851,1.145,3.7,2.333,5.5,3.563,1.3.869,2.573,1.781,3.807,2.715a1.789,1.789,0,0,1,.441,2.121A1.35,1.35,0,0,1,510.881,131.543Zm-158.023-1.082a1.321,1.321,0,0,1-1.146-.806,1.755,1.755,0,0,1,.476-2.121c3.067-2.121,6.222-4.242,9.413-6.023a1.229,1.229,0,0,1,1.763.721,1.772,1.772,0,0,1-.617,2.121c-3.138,1.845-6.24,3.817-9.254,5.917a1.073,1.073,0,0,1-.635.148ZM493.7,120.77a1.006,1.006,0,0,1-.529-.148c-3.173-1.675-6.451-3.245-9.73-4.644a1.7,1.7,0,0,1-.8-2.047,1.283,1.283,0,0,1,1.7-.965c3.331,1.442,6.663,3.033,9.906,4.75a1.684,1.684,0,0,1,.775,1.8,1.4,1.4,0,0,1-1.322,1.255Zm-123.475-.657a1.326,1.326,0,0,1-1.216-.976,1.89,1.89,0,0,1-.021-1.24,1.488,1.488,0,0,1,.726-.881c3.261-1.654,6.61-3.181,9.959-4.56a1.119,1.119,0,0,1,1.058.024,1.528,1.528,0,0,1,.7.951,1.94,1.94,0,0,1-.042,1.271,1.481,1.481,0,0,1-.787.85c-3.3,1.357-6.61,2.863-9.8,4.475a1.166,1.166,0,0,1-.582.042ZM475.5,112.775a1.117,1.117,0,0,1-.37,0c-3.331-1.166-6.751-2.121-10.153-3.118a1.621,1.621,0,0,1-1.014-1.9,1.347,1.347,0,0,1,1.578-1.219c3.525.912,6.945,1.993,10.329,3.181a1.622,1.622,0,0,1,.939,1.752,1.429,1.429,0,0,1-1.309,1.366Zm-86.988-.318a1.387,1.387,0,0,1-1.269-1.166,1.855,1.855,0,0,1,.111-1.2,1.377,1.377,0,0,1,.788-.75c3.4-1.145,6.892-2.121,10.364-3.054a1.175,1.175,0,0,1,1.355.413,1.834,1.834,0,0,1,.29,1.645,1.4,1.4,0,0,1-1.1,1.039c-3.42.869-6.839,1.887-10.188,3.011Zm68.092-4.793h-.264c-3.437-.657-6.945-1.188-10.4-1.569a1.324,1.324,0,0,1-1.169-.882,1.864,1.864,0,0,1,.12-1.654,1.228,1.228,0,0,1,1.278-.625q5.288.573,10.576,1.591a1.6,1.6,0,0,1,1.093,1.824,1.419,1.419,0,0,1-1.234,1.251Zm-49.161-.148a1.423,1.423,0,0,1-1.3-1.336,1.6,1.6,0,0,1,1.11-1.824c3.525-.636,7.051-1.166,10.576-1.527a1.425,1.425,0,0,1,1.437,1.453,1.538,1.538,0,0,1-1.207,1.728c-3.525.361-6.963.848-10.4,1.506Zm29.877-2.121h0c-3.525-.148-7.051-.17-10.488,0a1.168,1.168,0,0,1-.949-.415,1.707,1.707,0,0,1-.408-1.112,1.763,1.763,0,0,1,.357-1.143,1.214,1.214,0,0,1,.93-.49c3.525-.148,7.051-.127,10.576,0a1.493,1.493,0,0,1,1.287,1.633,1.477,1.477,0,0,1-1.3,1.485Z" transform="translate(190.82 -102.131)" fill="#e0e0e0"/>
    </g>
    <g id="freepik--Mailbox--inject-26" transform="translate(599.144 176.199)">
      <path id="Path_1436" data-name="Path 1436" d="M411.983,226.513V223.12H411.3a12.335,12.335,0,0,0-4.565-5.387,23.9,23.9,0,0,0-25.418,0,12.334,12.334,0,0,0-4.565,5.387h-.687v3.287c0,3.245,1.763,6.511,5.288,8.992a24,24,0,0,0,25.418,0C410.256,233,412,229.737,411.983,226.513Z" transform="translate(-333.599 -39.726)" fill="#37474f"/>
      <ellipse id="Ellipse_12" data-name="Ellipse 12" cx="17.962" cy="12.491" rx="17.962" ry="12.491" transform="translate(42.461 170.903)" fill="#455a64"/>
      <path id="Path_1437" data-name="Path 1437" d="M383.63,169.3V271.838a2.805,2.805,0,0,0,1.34,2.269,6.166,6.166,0,0,0,6.539,0,2.775,2.775,0,0,0,1.357-2.269V169.3Z" transform="translate(-327.826 -89.907)" fill="#37474f"/>
      <path id="Path_1438" data-name="Path 1438" d="M427.744,134.507c-4.495-3.117-8.584-3.372-11.651-1.315h0L359,172.892l28.643,69.115,57.287-39.87V171.9C444.93,157.835,437.227,141.1,427.744,134.507Z" transform="translate(-346.611 -131.864)" fill="#455a64"/>
      <path id="Path_1439" data-name="Path 1439" d="M390.114,190.689v30.263l-34.354-23.88V166.83c0-14.061,7.685-20.1,17.168-13.509,6.081,4.242,11.422,12.6,14.471,21.759a50.588,50.588,0,0,1,2.715,15.609Z" transform="translate(-349.082 -110.808)" fill="#37474f"/>
      <path id="Path_1440" data-name="Path 1440" d="M390.114,177.779v30.263l-34.354-23.88L387.4,162.17A50.59,50.59,0,0,1,390.114,177.779Z" transform="translate(-349.082 -97.898)" fill="#263238"/>
      <path id="Path_1441" data-name="Path 1441" d="M387.275,192.977c-3.155-10.985-13.414-25.237-22.915-31.811s-14.613-3.033-11.457,7.953l5.729,19.893L393,212.89S390.448,203.962,387.275,192.977Z" transform="translate(-351.971 -102.726)" fill="#455a64"/>
      <path id="Path_1442" data-name="Path 1442" d="M388.94,170.925l-1.921-1.336h0a2.215,2.215,0,0,0-2.573.3A10.267,10.267,0,0,0,380.8,177.5a3.352,3.352,0,0,0,1.075,2.842h0l1.763,1.23.335-.657a3.2,3.2,0,0,0,1.04-.488,10.217,10.217,0,0,0,3.649-7.592,5.383,5.383,0,0,0-.123-1.124Z" transform="translate(-329.998 -89.9)" fill="#263238"/>
      <path id="Path_1443" data-name="Path 1443" d="M385.479,170.508a10.217,10.217,0,0,0-3.649,7.592c0,2.8,1.639,3.923,3.649,2.524a10.194,10.194,0,0,0,3.649-7.592C389.18,170.232,387.418,169.108,385.479,170.508Z" transform="translate(-329.199 -89.228)" fill="#37474f"/>
      <path id="Path_1444" data-name="Path 1444" d="M384.358,197.606a1.18,1.18,0,0,1-1.058-1.272V152.582a1.076,1.076,0,1,1,2.115,0v43.751a1.18,1.18,0,0,1-1.058,1.272Z" transform="translate(-328.078 -110.07)" fill="#263238"/>
      <path id="Path_1445" data-name="Path 1445" d="M384.44,153.055v11.41l10.171-12.555Z" transform="translate(-327.208 -109.397)" fill="#37474f"/>
    </g>
    <g id="freepik--Plants--inject-26" transform="translate(58.268 308.608)">
      <path id="Path_1446" data-name="Path 1446" d="M108.505,383.667c-.881.573-17.063,6.087-23.056-3.436s3.966-24.367-1.657-29.839-21.381,0-25.171-11.495,7.438-16.457,1.128-28.058c-3.984-7.317-15.124-11.346-14.613-18.154.74-9.946,15.97-12.724,29.26-1.972s19.5,1.93,23.708,1.209,13.308.869,13.026,18.684S108.505,383.667,108.505,383.667Z" transform="translate(-45.12 -93.948)" fill="#8c9efc"/>
      <path id="Path_1447" data-name="Path 1447" d="M105.838,356.108a.964.964,0,0,1-.881-.891c-4.636-33.932-37.3-61.353-54.29-67.249a.91.91,0,0,1-.533-.5,1.229,1.229,0,0,1-.067-.811.87.87,0,0,1,1.093-.721c17.362,6.044,50.782,34.229,55.542,68.946a1.055,1.055,0,0,1-.723,1.209Z" transform="translate(-41.378 -91.648)" fill="#fff"/>
      <path id="Path_1448" data-name="Path 1448" d="M60.215,309.923a.921.921,0,0,1-.857-.775,1.163,1.163,0,0,1,.4-1.2c.529-.382,13.114-9.225,25.488-5.09A1.13,1.13,0,0,1,85.9,304.2a.91.91,0,0,1-1.11.785c-11.669-3.9-24.008,4.772-24.131,4.857a.676.676,0,0,1-.441.085Z" transform="translate(-34.287 -73.859)" fill="#fff"/>
      <path id="Path_1449" data-name="Path 1449" d="M346.217,304.835c6.945,1.145,18.772-3.69,19.618-17.6s5.623-17.687,14.383-19.956,11.334-5.938,12.339-12.555-5.658-14.527-3.79-24.495,8.108-9.946,14.242-21.207c3.931-7.253-4.125-18.323-17.539-13.573s-12.339,15.163-25.753,16.5S337.9,223.08,337.633,235.274,346.217,304.835,346.217,304.835Z" transform="translate(177.965 -194.299)" fill="#8c9efc"/>
      <path id="Path_1450" data-name="Path 1450" d="M346.217,304.835c6.945,1.145,18.772-3.69,19.618-17.6s5.623-17.687,14.383-19.956,11.334-5.938,12.339-12.555-5.658-14.527-3.79-24.495,8.108-9.946,14.242-21.207c3.931-7.253-4.125-18.323-17.539-13.573s-12.339,15.163-25.753,16.5S337.9,223.08,337.633,235.274,346.217,304.835,346.217,304.835Z" transform="translate(177.965 -194.299)" opacity="0.2"/>
      <path id="Path_1451" data-name="Path 1451" d="M341.411,275.483h-.106a1.072,1.072,0,0,1-.688-1.251c6.487-38.576,41.863-73.887,50.483-77.492a.9.9,0,0,1,1.172.71,1.179,1.179,0,0,1-.59,1.41c-8.426,3.52-42.991,38.173-49.355,75.9a.912.912,0,0,1-.917.721Z" transform="translate(180.232 -191.626)" fill="#fff"/>
    </g>
    <g id="freepik--Envelopes--inject-26" transform="translate(114.25 92.305)">
      <path id="Path_1452" data-name="Path 1452" d="M76.88,319.129a12.834,12.834,0,0,1,4.583-9.543L315.739,146.84a8.67,8.67,0,0,1,9.148,0l5.165,3.605a12.764,12.764,0,0,1,4.583,9.543V376.05a12.9,12.9,0,0,1-4.583,9.543L95.776,548.319a8.613,8.613,0,0,1-9.166,0l-5.147-3.584a12.88,12.88,0,0,1-4.583-9.543Z" transform="translate(-76.88 -32.648)" fill="#8c9efc"/>
      <path id="Path_1453" data-name="Path 1453" d="M76.88,319.129a12.834,12.834,0,0,1,4.583-9.543L315.739,146.84a8.67,8.67,0,0,1,9.148,0l5.165,3.605a12.764,12.764,0,0,1,4.583,9.543V376.05a12.9,12.9,0,0,1-4.583,9.543L95.776,548.319a8.613,8.613,0,0,1-9.166,0l-5.147-3.584a12.88,12.88,0,0,1-4.583-9.543Z" transform="translate(-76.88 -32.648)" opacity="0.3"/>
      <path id="Path_1454" data-name="Path 1454" d="M98.349,238.827l-20.13-14a13.009,13.009,0,0,0-1.34,5.429V446.321a12.879,12.879,0,0,0,4.583,9.543l5.147,3.584a8.613,8.613,0,0,0,9.166,0l2.573-1.781Z" transform="translate(-76.88 56.223)" fill="#8c9efc"/>
      <path id="Path_1455" data-name="Path 1455" d="M98.349,238.827l-20.13-14a13.009,13.009,0,0,0-1.34,5.429V446.321a12.879,12.879,0,0,0,4.583,9.543l5.147,3.584a8.613,8.613,0,0,0,9.166,0l2.573-1.781Z" transform="translate(-76.88 56.223)" opacity="0.5"/>
      <path id="Path_1456" data-name="Path 1456" d="M328.447,153.954V370.016a12.921,12.921,0,0,1-1.428,5.578,11.375,11.375,0,0,1-2.679,3.605l-.176.127-.3.233L89.587,542.284h0a2.806,2.806,0,0,1-3.12.424A4.081,4.081,0,0,1,85,539.188V323.041a5.251,5.251,0,0,1,1.511-4.062,3.463,3.463,0,0,1,3.636-.816l98.515,28.185,12.9,3.69a7.81,7.81,0,0,0,8.232-3.711l14.947-25.046L325.362,152.745C327.054,149.9,328.447,150.433,328.447,153.954Z" transform="translate(-70.692 -26.613)" fill="#8c9efc"/>
      <path id="Path_1457" data-name="Path 1457" d="M328.447,153.954V370.016a12.921,12.921,0,0,1-1.428,5.578,11.375,11.375,0,0,1-2.679,3.605l-.176.127-.3.233L89.587,542.284h0a2.806,2.806,0,0,1-3.12.424A4.081,4.081,0,0,1,85,539.188V323.041a5.251,5.251,0,0,1,1.511-4.062,3.463,3.463,0,0,1,3.636-.816l98.515,28.185,12.9,3.69a7.81,7.81,0,0,0,8.232-3.711l14.947-25.046L325.362,152.745C327.054,149.9,328.447,150.433,328.447,153.954Z" transform="translate(-70.692 -26.613)" opacity="0.2"/>
      <path id="Path_1458" data-name="Path 1458" d="M263.395,289.506l.3-.233.176-.127a11.375,11.375,0,0,0,2.679-3.605,12.834,12.834,0,0,0,1.428-5.493L164.28,231.27l69.449,78.892Z" transform="translate(-10.223 63.44)" fill="#8c9efc"/>
      <path id="Path_1459" data-name="Path 1459" d="M263.395,289.506l.3-.233.176-.127a11.375,11.375,0,0,0,2.679-3.605,12.834,12.834,0,0,0,1.428-5.493L164.28,231.27l69.449,78.892Z" transform="translate(-10.223 63.44)" opacity="0.6"/>
      <path id="Path_1460" data-name="Path 1460" d="M85.009,435.988a4.11,4.11,0,0,0,1.428,3.627,2.806,2.806,0,0,0,3.12-.424h0l80.695-56.221L188.671,243,85.009,432.319Z" transform="translate(-70.696 76.587)" fill="#8c9efc"/>
      <path id="Path_1461" data-name="Path 1461" d="M85.009,435.988a4.11,4.11,0,0,0,1.428,3.627,2.806,2.806,0,0,0,3.12-.424h0l80.695-56.221L188.671,243,85.009,432.319Z" transform="translate(-70.696 76.587)" opacity="0.6"/>
      <path id="Path_1462" data-name="Path 1462" d="M326.381,287.669a11.375,11.375,0,0,1-2.679,3.605l-.176.127L88.95,454.36h0a2.806,2.806,0,0,1-3.12.424l112.194-215.49c4.661-8.923,14.061-12.373,22.069-8.1Z" transform="translate(-70.054 61.311)" fill="#8c9efc"/>
      <path id="Path_1463" data-name="Path 1463" d="M326.381,287.669a11.375,11.375,0,0,1-2.679,3.605l-.176.127L88.95,454.36h0a2.806,2.806,0,0,1-3.12.424l112.194-215.49c4.661-8.923,14.061-12.373,22.069-8.1Z" transform="translate(-70.054 61.311)" opacity="0.2"/>
      <path id="Path_1464" data-name="Path 1464" d="M85,318.269l107.752,57.26c8.02,4.26,17.424.781,22.069-8.165L327.966,149.5Z" transform="translate(-70.687 -28.204)" fill="#8c9efc"/>
      <path id="Path_1465" data-name="Path 1465" d="M85,318.269l107.752,57.26c8.02,4.26,17.424.781,22.069-8.165L327.966,149.5Z" transform="translate(-70.687 -28.204)" opacity="0.6"/>
      <path id="Path_1466" data-name="Path 1466" d="M85,318.269l108.51,48.777c7.724,3.469,16.414.034,20.923-8.271L327.966,149.5Z" transform="translate(-70.687 -28.204)" fill="#8c9efc"/>
      <path id="Path_1467" data-name="Path 1467" d="M85,318.269l108.51,48.777c7.724,3.469,16.414.034,20.923-8.271L327.966,149.5Z" transform="translate(-70.687 -28.204)" opacity="0.2"/>
      <path id="Path_1468" data-name="Path 1468" d="M99.58,331.688a12.765,12.765,0,0,1,4.583-9.543L338.439,159.4a8.614,8.614,0,0,1,9.166,0l5.165,3.584a12.843,12.843,0,0,1,4.565,9.543V388.587a12.888,12.888,0,0,1-4.565,9.543L118.476,560.856a8.67,8.67,0,0,1-9.148,0l-5.165-3.584a12.9,12.9,0,0,1-4.583-9.543Z" transform="translate(-59.567 -18.591)" fill="#455a64"/>
      <path id="Path_1469" data-name="Path 1469" d="M99.58,331.688a12.765,12.765,0,0,1,4.583-9.543L338.439,159.4a8.614,8.614,0,0,1,9.166,0l5.165,3.584a12.843,12.843,0,0,1,4.565,9.543V388.587a12.888,12.888,0,0,1-4.565,9.543L118.476,560.856a8.67,8.67,0,0,1-9.148,0l-5.165-3.584a12.9,12.9,0,0,1-4.583-9.543Z" transform="translate(-59.567 -18.591)" fill="#455a64"/>
      <path id="Path_1470" data-name="Path 1470" d="M121.067,251.386,100.92,237.41a12.935,12.935,0,0,0-1.34,5.429v216a12.9,12.9,0,0,0,4.583,9.543l5.165,3.584a8.67,8.67,0,0,0,9.148,0l2.591-1.8Z" transform="translate(-59.567 70.322)" fill="#263238"/>
      <path id="Path_1471" data-name="Path 1471" d="M351.146,166.484V382.546a12.921,12.921,0,0,1-1.428,5.578,11.374,11.374,0,0,1-2.679,3.605l-.176.127-.3.233L112.287,554.815h0a2.806,2.806,0,0,1-3.12.424,4.109,4.109,0,0,1-1.428-3.626V335.572a5.251,5.251,0,0,1,1.511-4.062,3.463,3.463,0,0,1,3.636-.816L211.4,358.879l12.9,3.69a7.81,7.81,0,0,0,8.232-3.711l14.93-25.046L348.079,165.276C349.7,162.476,351.146,162.964,351.146,166.484Z" transform="translate(-53.361 -12.55)" fill="#37474f"/>
      <path id="Path_1472" data-name="Path 1472" d="M286.1,302.035l.3-.233.176-.127a11.374,11.374,0,0,0,2.679-3.605,12.892,12.892,0,0,0,1.41-5.472L186.99,243.82l69.431,78.849Z" transform="translate(7.097 77.506)" fill="#263238"/>
      <path id="Path_1473" data-name="Path 1473" d="M107.725,448.387a4.11,4.11,0,0,0,1.428,3.626,2.806,2.806,0,0,0,3.12-.424h0l80.66-56.03,18.42-139.97L107.69,444.761Z" transform="translate(-53.382 90.697)" fill="#263238"/>
      <path id="Path_1474" data-name="Path 1474" d="M349.074,300.215a11.374,11.374,0,0,1-2.679,3.605l-.176.127L111.66,466.906h0a2.806,2.806,0,0,1-3.12.424L220.716,251.862c4.65-8.938,14.053-12.408,22.069-8.144Z" transform="translate(-52.734 75.359)" fill="#37474f"/>
      <path id="Path_1475" data-name="Path 1475" d="M107.71,330.875l107.752,57.26c8.016,4.248,17.408.77,22.051-8.165L350.658,162Z" transform="translate(-53.367 -14.194)" fill="#263238"/>
      <path id="Path_1476" data-name="Path 1476" d="M107.71,330.875,216.2,379.653c7.729,3.481,16.43.044,20.941-8.271L350.658,162Z" transform="translate(-53.367 -14.194)" fill="#37474f"/>
      <path id="Path_1477" data-name="Path 1477" d="M197.07,544.682V328.62a26.576,26.576,0,0,1,3.085-11.516l111.736-187.2c4.17-7,11.441-10.263,18.4-8.271l105.073,30.051a40.084,40.084,0,0,1,9.73,4.666l5.165,3.584a12.911,12.911,0,0,1,4.565,9.543V385.541a12.957,12.957,0,0,1-4.565,9.543L215.966,557.81a8.627,8.627,0,0,1-9.148,0l-5.165-3.584a12.879,12.879,0,0,1-4.583-9.543Z" transform="translate(14.785 -60.08)" fill="#8c9efc"/>
      <path id="Path_1478" data-name="Path 1478" d="M197.07,544.682V328.62a26.576,26.576,0,0,1,3.085-11.516l111.736-187.2c4.17-7,11.441-10.263,18.4-8.271l105.073,30.051a40.084,40.084,0,0,1,9.73,4.666l5.165,3.584a12.911,12.911,0,0,1,4.565,9.543V385.541a12.957,12.957,0,0,1-4.565,9.543L215.966,557.81a8.627,8.627,0,0,1-9.148,0l-5.165-3.584a12.879,12.879,0,0,1-4.583-9.543Z" transform="translate(14.785 -60.08)" fill="#fff" opacity="0.3"/>
      <path id="Path_1479" data-name="Path 1479" d="M209.25,255.827v275.7c0,3.5,2.062,4.941,4.583,3.181L433.8,382.011a12.81,12.81,0,0,0,4.583-9.543V96.77c0-3.52-2.045-4.941-4.583-3.181L213.833,246.283a12.833,12.833,0,0,0-4.583,9.543Z" transform="translate(24.074 -91.712)" fill="#fafafa"/>
      <path id="Path_1480" data-name="Path 1480" d="M212.163,537.143a2.814,2.814,0,0,1-1.622-.509,5.216,5.216,0,0,1-1.763-4.475v-275.7a13.929,13.929,0,0,1,5.024-10.477L433.765,93.291a3.164,3.164,0,0,1,4.133-.4,4.739,4.739,0,0,1,1.772,4.509V373.1a13.856,13.856,0,0,1-5.024,10.455L214.683,536.252a4.427,4.427,0,0,1-2.521.891ZM436.215,94.373a3,3,0,0,0-1.6.615l-219.963,152.8a11.811,11.811,0,0,0-4.142,8.631v275.7a2.57,2.57,0,0,0,.916,2.621,1.714,1.714,0,0,0,2.345-.352L433.73,381.692a11.788,11.788,0,0,0,4.142-8.632V97.363a3.261,3.261,0,0,0-.9-2.651A1.371,1.371,0,0,0,436.215,94.373Z" transform="translate(23.7 -92.305)" fill="#e0e0e0"/>
      <path id="Path_1481" data-name="Path 1481" d="M213.79,227.238,197.926,216.21a23.915,23.915,0,0,0-.846,5.768V438.041a12.879,12.879,0,0,0,4.583,9.543l5.147,3.584a8.585,8.585,0,0,0,9.148,0l2.2-1.506Z" transform="translate(14.793 46.562)" fill="#8c9efc"/>
      <g id="Group_147" data-name="Group 147" transform="translate(211.873 262.772)" opacity="0.1">
        <path id="Path_1482" data-name="Path 1482" d="M213.79,227.238,197.926,216.21a23.915,23.915,0,0,0-.846,5.768V438.041a12.879,12.879,0,0,0,4.583,9.543l5.147,3.584a8.585,8.585,0,0,0,9.148,0l2.2-1.506Z" transform="translate(-197.08 -216.21)"/>
      </g>
      <path id="Path_1483" data-name="Path 1483" d="M448.636,145.484V361.546a12.922,12.922,0,0,1-1.428,5.578,11.375,11.375,0,0,1-2.679,3.605l-.176.127-.3.233L209.777,533.815h0a2.806,2.806,0,0,1-3.12.424,4.109,4.109,0,0,1-1.428-3.626V314.572a5.251,5.251,0,0,1,1.511-4.062,3.463,3.463,0,0,1,3.636-.816l98.463,28.185,12.9,3.69a7.809,7.809,0,0,0,8.249-3.711l14.947-25.046L445.551,144.276C447.243,141.476,448.636,141.964,448.636,145.484Z" transform="translate(20.992 -36.085)" fill="#8c9efc"/>
      <path id="Path_1484" data-name="Path 1484" d="M448.636,145.484V361.546a12.922,12.922,0,0,1-1.428,5.578,11.375,11.375,0,0,1-2.679,3.605l-.176.127-.3.233L209.777,533.815h0a2.806,2.806,0,0,1-3.12.424,4.109,4.109,0,0,1-1.428-3.626V314.572a5.251,5.251,0,0,1,1.511-4.062,3.463,3.463,0,0,1,3.636-.816l98.463,28.185,12.9,3.69a7.809,7.809,0,0,0,8.249-3.711l14.947-25.046L445.551,144.276C447.243,141.476,448.636,141.964,448.636,145.484Z" transform="translate(20.992 -36.085)" fill="#fff" opacity="0.3"/>
      <path id="Path_1485" data-name="Path 1485" d="M383.595,281.046l.3-.233.176-.127a11.375,11.375,0,0,0,2.679-3.605,12.969,12.969,0,0,0,1.41-5.493L284.48,222.81l69.431,78.871Z" transform="translate(81.45 53.959)" fill="#8c9efc"/>
      <path id="Path_1486" data-name="Path 1486" d="M205.215,427.387a4.11,4.11,0,0,0,1.428,3.626,2.806,2.806,0,0,0,3.12-.424h0l80.66-56.03,18.42-139.97L205.18,423.761Z" transform="translate(20.97 67.161)" fill="#8c9efc"/>
      <path id="Path_1487" data-name="Path 1487" d="M446.581,279.211a11.374,11.374,0,0,1-2.679,3.605l-.176.127L209.15,445.9h0a2.806,2.806,0,0,1-3.12.424L318.206,230.858c4.649-8.927,14.04-12.4,22.051-8.144Z" transform="translate(21.619 51.827)" fill="#8c9efc"/>
      <path id="Path_1488" data-name="Path 1488" d="M446.581,279.211a11.374,11.374,0,0,1-2.679,3.605l-.176.127L209.15,445.9h0a2.806,2.806,0,0,1-3.12.424L318.206,230.858c4.649-8.927,14.04-12.4,22.051-8.144Z" transform="translate(21.619 51.827)" fill="#fff" opacity="0.3"/>
      <path id="Path_1489" data-name="Path 1489" d="M270.828,248.121a11.63,11.63,0,0,1-11.3-4.666c-2.679-3.584-4.019-9.119-4.019-16.563a69.207,69.207,0,0,1,4.389-24.346,75.629,75.629,0,0,1,12.092-21.208,88.1,88.1,0,0,1,18.332-17.263q9.924-6.871,16.939-7.613c4.706-.509,8.249.954,10.682,4.348s3.631,8.589,3.631,15.545a47.466,47.466,0,0,1-3.948,19.808,31.324,31.324,0,0,1-10.435,13.276,6.739,6.739,0,0,1-5.288,1.654,3.916,3.916,0,0,1-2.75-3.2,39.378,39.378,0,0,1-5.535,9.1,36.028,36.028,0,0,1-7.544,7.062c-4.794,3.266-8.619,4.242-11.44,3.118s-4.16-4.56-4.16-10.286a40.989,40.989,0,0,1,5.288-20.126,46.644,46.644,0,0,1,14.383-15.863,24.457,24.457,0,0,1,7.738-3.732,9.907,9.907,0,0,1,6.187,0v22.331c0,1.8.264,2.905.776,3.33s1.357.212,2.556-.615a13.725,13.725,0,0,0,4.671-7.444,43.58,43.58,0,0,0,1.675-12.873q0-8.356-3.032-12.152a8.461,8.461,0,0,0-8.3-3.054,28.643,28.643,0,0,0-12.109,5.429,64.684,64.684,0,0,0-19.654,21.207,55.678,55.678,0,0,0-7.227,28.015q0,9.14,3.12,13.339a8.73,8.73,0,0,0,8.6,3.563,28.259,28.259,0,0,0,12.339-5.45A51.59,51.59,0,0,0,294.8,226.6a44.148,44.148,0,0,0,5.764-7.083,3.457,3.457,0,0,1,.617-.721c.159-.106.317,0,.458.255l1.939,4.241a2.605,2.605,0,0,1,.159.53,2.279,2.279,0,0,1-.546,1.23,61.327,61.327,0,0,1-7.051,8.483,63.474,63.474,0,0,1-8.619,7.3,37.487,37.487,0,0,1-16.692,7.3Zm22.915-39.87a15.926,15.926,0,0,0,2.785-8.483V186.831a13.6,13.6,0,0,0-7.051,2.927,26.8,26.8,0,0,0-8.355,9.352,24.808,24.808,0,0,0-3.085,12.025c0,3.584.74,5.726,2.239,6.362s3.807,0,6.963-2.269a24.174,24.174,0,0,0,6.575-6.977Z" transform="translate(59.355 -20.511)" fill="#e0e0e0"/>
    </g>
    <g id="freepik--Notifications--inject-26" transform="translate(147.141 326.66)">
      <path id="Path_1490" data-name="Path 1490" d="M168.338,217.315l-17.186-11.982h-.123c-5.87-3.987-13.96-3.393-22.915,2.821-18,12.491-32.574,42.882-32.574,67.864,0,12.491,3.631,21.208,9.5,25.449h0l15.987,11.007,2.891-5.79a30.371,30.371,0,0,0,9.342-4.369c17.979-12.512,32.574-42.9,32.574-67.864a50.777,50.777,0,0,0-1.022-10.01Z" transform="translate(-95.54 -202.81)" fill="#f28f8f"/>
      <path id="Path_1491" data-name="Path 1491" d="M168.338,217.315l-17.186-11.982h-.123c-5.87-3.987-13.96-3.393-22.915,2.821-18,12.491-32.574,42.882-32.574,67.864,0,12.491,3.631,21.208,9.5,25.449h0l15.987,11.007,2.891-5.79a30.371,30.371,0,0,0,9.342-4.369c17.979-12.512,32.574-42.9,32.574-67.864a50.777,50.777,0,0,0-1.022-10.01Z" transform="translate(-95.54 -202.81)" fill="#8c9efc"/>
      <path id="Path_1492" data-name="Path 1492" d="M168.338,217.315l-17.186-11.982h-.123c-5.87-3.987-13.96-3.393-22.915,2.821-18,12.491-32.574,42.882-32.574,67.864,0,12.491,3.631,21.208,9.5,25.449h0l15.987,11.007,2.891-5.79a30.371,30.371,0,0,0,9.342-4.369c17.979-12.512,32.574-42.9,32.574-67.864a50.777,50.777,0,0,0-1.022-10.01Z" transform="translate(-95.54 -202.81)" opacity="0.4"/>
      <path id="Path_1493" data-name="Path 1493" d="M137.484,213.526c-18,12.512-32.574,42.9-32.574,67.864s14.577,35.12,32.574,22.628,32.574-42.882,32.574-67.864S155.481,201.035,137.484,213.526Z" transform="translate(-88.394 -196.795)" fill="#8c9efc"/>
      <path id="Path_1494" data-name="Path 1494" d="M116.391,275.954c-.335,0-.511-.233-.511-.594a3.775,3.775,0,0,1,.282-1.145l1.639-4.432a2.314,2.314,0,0,1,.617-1.1,1.718,1.718,0,0,1,.776-.212,13.556,13.556,0,0,0,4.3-1.039,25.57,25.57,0,0,0,5.288-2.927,23.019,23.019,0,0,0,6.7-6.829,14.217,14.217,0,0,0,2.168-7.4c0-4.687-2.38-5.366-7.139-2.121l-4.636,3.372c-.758.509-1.287.7-1.6.53s-.476-.679-.476-1.527v-1.76a4.248,4.248,0,0,1,.476-2.121,5.112,5.112,0,0,1,1.6-1.654l4.6-3.2a13.857,13.857,0,0,0,4.548-5.069,13.091,13.091,0,0,0,1.516-5.959q0-6.808-7.967-1.272a36.719,36.719,0,0,0-8.708,8.483,6.126,6.126,0,0,1-.776.87.457.457,0,0,1-.617-.17l-1.569-2.121a1.168,1.168,0,0,1-.282-.763,2.332,2.332,0,0,1,.494-1.294,37.993,37.993,0,0,1,5.288-6.362,54.232,54.232,0,0,1,7.245-5.981,20.7,20.7,0,0,1,7.491-3.584,5.126,5.126,0,0,1,4.883,1.166,7.866,7.866,0,0,1,1.763,5.662,20.32,20.32,0,0,1-1.269,6.765,24.638,24.638,0,0,1-3.525,6.7,4.128,4.128,0,0,1,4.512,1,8.617,8.617,0,0,1,1.5,5.556,25.162,25.162,0,0,1-3.913,12.937,37.3,37.3,0,0,1-11.07,11.579Q120.71,276.485,116.391,275.954Z" transform="translate(-80.027 -185.378)" fill="#fff"/>
    </g>
    <g id="freepik--Character--inject-26" transform="translate(484.789 380.338)">
      <path id="Path_1495" data-name="Path 1495" d="M325.986,356.544h0l.335-.361c.247-.254.511-.509.74-.785l.793-.933.793-.912a21,21,0,0,0,1.322-1.654l6.275,5.641,4.178,3.754a25.468,25.468,0,0,0-3.666,6.723s-1.251,2.439-5.5,1.209C326,367.763,325.175,358.474,325.986,356.544Z" transform="translate(-257.638 -89.397)" fill="#ffa8a7"/>
      <path id="Path_1496" data-name="Path 1496" d="M291.911,399.973c-4.794-6.7-.529-17.835,4.125-32.278,5.112-15.884,13.009-42.882,13.009-42.882l56.07-13.933s59.737-1.379,65.219,12.364c4.442,11.007-34.9,27.57-40.541,28.164l-34.531,2.184-3.631,2.121-24.254,36.922Z" transform="translate(-285.027 -135.412)" fill="#8c9efc"/>
      <path id="Path_1497" data-name="Path 1497" d="M366.152,329.146a165.276,165.276,0,0,0-12.145,16.966c-10.1,16.966-26.087,47.78-26.087,47.78s2.485,9.755,10.118,9.331c0,0,52.527-59.02,56.828-64.471,6.5-8.271,11.722-21.907.476-23.031S370.524,323.462,366.152,329.146Z" transform="translate(-255.959 -130.053)" fill="#8c9efc"/>
      <path id="Path_1498" data-name="Path 1498" d="M344.81,342.488s9.377-16.5,19.09-23.328c0,0-9.659,2.29-24.29,23.71Z" transform="translate(-247.043 -126.09)" fill="#8c9efc"/>
      <path id="Path_1499" data-name="Path 1499" d="M344.81,342.488s9.377-16.5,19.09-23.328c0,0-9.659,2.29-24.29,23.71Z" transform="translate(-247.043 -126.09)" opacity="0.1"/>
      <path id="Path_1500" data-name="Path 1500" d="M347.774,340.448l-3.684.848,3.42,15.206a39.942,39.942,0,0,1,4.46-.3,17.044,17.044,0,0,0,4.777-2.227l-.881-9.289-4.054-5.09Z" transform="translate(-243.627 -103.182)" fill="#ffa8a7"/>
      <path id="Path_1501" data-name="Path 1501" d="M375.264,346.256a15.541,15.541,0,0,1,7.72,9.458,54.494,54.494,0,0,1,1.921,6.871c.582,2.46.3,6.638-2.291,7.317a3.666,3.666,0,0,1-2.45-.53c-5.2-2.418-10.276-5.217-15.6-7.253a44.441,44.441,0,0,0-14.19-3.711,13.8,13.8,0,0,0-.423-13.594,6.415,6.415,0,0,0-3.772-2.121c1.34-.721,2.591-1.654,3.878-2.524a10.275,10.275,0,0,1,8.232-2.439c2.221.572,3.913,2.693,5.8,4.241C367.685,344.793,371.157,344.6,375.264,346.256Z" transform="translate(-242.033 -105.405)" fill="#263238"/>
      <path id="Path_1502" data-name="Path 1502" d="M299.242,352.287c4.636-1.718,12.039-3.245,34-4.6s52.016-7.3,52.016-7.3c5.112,5.917,3.42,15.206,3.42,15.206s-39.008,14.845-51.717,16.818c-20.235,3.139-27.216,2.905-36.346.551C290.359,370.314,283.89,357.95,299.242,352.287Z" transform="translate(-284.797 -102.296)" fill="#8c9efc"/>
      <path id="Path_1503" data-name="Path 1503" d="M348.624,286.65l16.5,47.441-11.81,8.738-22.7-46.254Z" transform="translate(-253.907 -162.526)" fill="#f28f8f"/>
      <path id="Path_1504" data-name="Path 1504" d="M321.47,265.57c9.025.127,18.949,4.072,22.368,12.576l14.1,34.992s-7.967,14.039-20.623,13.043Z" transform="translate(-260.878 -186.151)" fill="#e0e0e0"/>
      <path id="Path_1505" data-name="Path 1505" d="M287.686,311.211c.106-1.845,2.309-10.858,4.671-20.571l17.133,7.126-4.6,17.454L290.453,331.7a32.108,32.108,0,0,1-2.767-20.486Z" transform="translate(-287.095 -158.054)" fill="#ffa8a7"/>
      <path id="Path_1506" data-name="Path 1506" d="M328.3,266.227c-10.752,3.118-25.4,7.168-29.648,21.208s-10.329,38.831-10.329,38.831c2.362,4.92,15.318,8.992,19.812,6.15l2.115-8.483V375.51c8.408,11.007,49.883,8.186,56.07-13.933v-70.26c0-11.24-5.182-24.749-19.513-25.746Z" transform="translate(-286.16 -186.151)" fill="#fafafa"/>
      <path id="Path_1507" data-name="Path 1507" d="M300.73,303.9l5.394-20.423-5.394,29.563Z" transform="translate(-276.696 -166.078)" fill="#e0e0e0"/>
      <path id="Path_1508" data-name="Path 1508" d="M311.626,238.8a5.768,5.768,0,0,0-5.288,2.121c-2.274,2.8-1.763,7.974,0,19.85l7.051.954Z" transform="translate(-273.578 -216.221)" fill="#263238"/>
      <path id="Path_1509" data-name="Path 1509" d="M333.72,237.933a9.369,9.369,0,0,0,4.389-1.082c2.15-1.484,2.715,1.463,1.534,4.008-1.587,3.731-4.67,6.2-8.144,6.532,0-.361-2.009-6.6-2.009-6.6Z" transform="translate(-254.761 -218.785)" fill="#263238"/>
      <path id="Path_1510" data-name="Path 1510" d="M315.7,266.9c-1.04.742-2.538-1.654-3.825-3.287a4.117,4.117,0,0,0-4.124-1.785,4.766,4.766,0,0,0-3.438,3.269c-2.133,5.408,2.715,12.6,5.552,14.973a4.339,4.339,0,0,0,5.834.594l.74,20.677c2.553,6.731,7.744,11.471,13.819,12.619,10.082,1.633,8-8.377,4.689-13.276v-7.571a20.193,20.193,0,0,0,7.685.466c1.3-.424,4.442-4.984,6.469-10.095,2.274-5.726,6.064-15.906,2.7-33.147-3.631-18.493-20.147-19.087-29.965-11.6S315.7,266.9,315.7,266.9Z" transform="translate(-274.361 -221.264)" fill="#ffa8a7"/>
      <path id="Path_1511" data-name="Path 1511" d="M312.493,275.856c-.529,0-2.521-3.966-3.825-5.387-1.763-1.972.529-19.765.529-19.765s-1.763-6.765,1.763-11.24,10.435-3.733,15.476-3.945a38.794,38.794,0,0,0,17.979-4.347c7.156-3.733,7.685-4.242,8.567-.4s1.234,12.428-3.032,18.217l-2.327,4.56s-2.168,2.121-8.813,3.181-18.032-3.33-19.389-3.563c-1.939-.318-2.344,1.93-3.384,8.08C315.049,266.652,314.256,275.814,312.493,275.856Z" transform="translate(-271.15 -228.121)" fill="#263238"/>
      <path id="Path_1512" data-name="Path 1512" d="M311.42,242.819l-6.31-4.072a3.812,3.812,0,0,1,2.06-2.148,2.993,2.993,0,0,1,2.717.261,5.042,5.042,0,0,1,1.533,5.959Z" transform="translate(-273.355 -218.858)" fill="#263238"/>
      <path id="Path_1513" data-name="Path 1513" d="M328.866,267.088s-9.342-2.269-12.6-4.242a12.115,12.115,0,0,1-4.512-5.387,19.513,19.513,0,0,0,2.573,6.362c2.38,3.669,14.542,6.362,14.542,6.362Z" transform="translate(-268.291 -195.24)" fill="#f28f8f"/>
      <path id="Path_1514" data-name="Path 1514" d="M323.246,250.673a2.056,2.056,0,0,1-1.914,2.163,2.1,2.1,0,0,1-1.822-2.275,2.08,2.08,0,0,1,1.867-2.221,2.142,2.142,0,0,1,1.868,2.333Z" transform="translate(-262.372 -205.461)" fill="#263238"/>
      <path id="Path_1515" data-name="Path 1515" d="M322.362,246.241l-4.019,2.651a3.265,3.265,0,0,1,.934-3.839,1.9,1.9,0,0,1,1.753-.2,2.42,2.42,0,0,1,1.331,1.388Z" transform="translate(-263.462 -209.513)" fill="#263238"/>
      <path id="Path_1516" data-name="Path 1516" d="M321.06,256.54l4.283,1.951a2.619,2.619,0,0,1-1.157,1.586,1.912,1.912,0,0,1-1.752.11,3.091,3.091,0,0,1-1.375-3.648Z" transform="translate(-261.297 -196.271)" fill="#f28f8f"/>
      <path id="Path_1517" data-name="Path 1517" d="M332.679,248.711l-3.649-3.393a2.208,2.208,0,0,1,1.485-1.1,1.953,1.953,0,0,1,1.688.529A3.318,3.318,0,0,1,332.679,248.711Z" transform="translate(-255.112 -210.116)" fill="#263238"/>
      <path id="Path_1518" data-name="Path 1518" d="M332.076,250.373a2.056,2.056,0,0,1-1.914,2.162,2.1,2.1,0,0,1-1.822-2.275,2.08,2.08,0,0,1,1.867-2.221,2.142,2.142,0,0,1,1.868,2.333Z" transform="translate(-255.638 -205.798)" fill="#263238"/>
      <path id="Path_1519" data-name="Path 1519" d="M326.223,249.01l-1.763,13.4,6.169-.87Z" transform="translate(-258.598 -204.711)" fill="#f28f8f"/>
      <path id="Path_1520" data-name="Path 1520" d="M408.142,334.907l-37.985-26.382a1.885,1.885,0,0,0-2.186,0L301.36,354.8l39.061,27.23Z" transform="translate(-276.215 -138.401)" fill="#37474f"/>
      <path id="Path_1521" data-name="Path 1521" d="M332.182,370.628,311.7,356.419l59.9-41.609,20.588,14.145Z" transform="translate(-268.329 -130.965)" fill="#263238"/>
      <path id="Path_1522" data-name="Path 1522" d="M317.61,329.181l.388.254,10.03,6.977,17.856-12.406.37-.255-10.417-7.232Z" transform="translate(-263.822 -129.049)" fill="#263238"/>
      <path id="Path_1523" data-name="Path 1523" d="M317.83,329.166l10.03,6.977,17.856-12.406-10.047-6.977Z" transform="translate(-263.654 -128.78)" fill="#263238"/>
      <path id="Path_1524" data-name="Path 1524" d="M301.36,340.706v1.082a4.694,4.694,0,0,0,1.763,3.817l35.394,24.58a3.125,3.125,0,0,0,3.666,0l64.055-44.536A4.717,4.717,0,0,0,408,321.832V320.75l-67.581,47.187Z" transform="translate(-276.215 -124.308)" fill="#263238"/>
      <path id="Path_1525" data-name="Path 1525" d="M323.52,367.892v2.927a3.093,3.093,0,0,0,1.763-.594l64.055-44.536a4.717,4.717,0,0,0,1.763-3.817V320.79Z" transform="translate(-259.315 -124.263)" fill="#263238"/>
      <path id="Path_1526" data-name="Path 1526" d="M324.11,397.682a3.712,3.712,0,0,0,3.737-.361l63.773-44.3a5.249,5.249,0,0,0,2.1-3.648l7.051-50.071a7.268,7.268,0,0,0,0-.869,5.841,5.841,0,0,0-1.287-3.711l-66.276,46.041a3.909,3.909,0,0,0-1.551,2.693Z" transform="translate(-258.865 -153.481)" fill="#263238"/>
      <path id="Path_1527" data-name="Path 1527" d="M323.52,397.491l.441.3a5.985,5.985,0,0,0,.6.361l7.544-54.228a3.909,3.909,0,0,1,1.551-2.693l66.276-46.041a5.778,5.778,0,0,0-.881-.806l-66.4,46.041a3.943,3.943,0,0,0-1.569,2.693Z" transform="translate(-259.315 -153.862)" fill="#455a64"/>
      <path id="Path_1528" data-name="Path 1528" d="M344.507,327.313a16.862,16.862,0,0,1,6.434-9.946c3.085-2.121,5.2-1.166,4.742,2.121a16.862,16.862,0,0,1-6.434,9.946C346.164,331.661,344.049,330.579,344.507,327.313Z" transform="translate(-243.356 -129.365)" fill="#37474f"/>
      <path id="Path_1529" data-name="Path 1529" d="M303.436,305.609s11.44,53.019,16.269,56.815,13.819,6.574,18.12,8.483,6.257,4.517,5.517,5.238-6.945,1.506-9.1,2.418.635,5.09,5.394,9.522,8.813,4.029,8.285,6.977-11.14,5.9-20.094-.424-11.669-14.845-17.01-22.077S293.283,335.279,289,322.13c0,0,.405-24.431,7.051-22.883S303.436,305.609,303.436,305.609Z" transform="translate(-285.642 -148.486)" fill="#ffa8a7"/>
      <path id="Path_1530" data-name="Path 1530" d="M328.07,357.51c.811,2.354,3.613,8.844,9.853,8.483l15.335-17.263Z" transform="translate(-255.844 -92.949)" fill="#8c9efc"/>
      <path id="Path_1531" data-name="Path 1531" d="M328.07,357.51c.811,2.354,3.613,8.844,9.853,8.483l15.335-17.263Z" transform="translate(-255.844 -92.949)" opacity="0.1"/>
      <path id="Path_1532" data-name="Path 1532" d="M333.32,357.84a1.246,1.246,0,0,1,0,.233A1.246,1.246,0,0,0,333.32,357.84Z" transform="translate(-251.84 -82.739)" fill="#263238"/>
      <path id="Path_1533" data-name="Path 1533" d="M337.488,381.883a50.259,50.259,0,0,1,2.239-16.287h0a4.824,4.824,0,0,1-5.129.806c-5.129-1.845-6.416-10.455-5.605-12.322h0c-.74.785-1.516,1.527-2.274,2.29a14.338,14.338,0,0,0-4.847,8.377c-.353,2.693.687,5.344,1.2,8.017.987,5.09,0,10.392-.159,15.609a18.267,18.267,0,0,0,4.565,12.046,40.139,40.139,0,0,0,4.654,4.644,3.889,3.889,0,0,0,4.92,1.373,5.406,5.406,0,0,0,2.712-5.126C339.092,394.692,337.805,388.775,337.488,381.883Z" transform="translate(-260.627 -86.953)" fill="#263238"/>
      <path id="Path_1534" data-name="Path 1534" d="M334.549,356.35c-.476,1.082-.9,2.121-1.269,3.16C333.721,358.492,334.144,357.431,334.549,356.35Z" transform="translate(-251.871 -84.409)" fill="#37474f"/>
      <path id="Path_1535" data-name="Path 1535" d="M325.86,354.271h0l.335-.361Z" transform="translate(-257.53 -87.144)" fill="#37474f"/>
    </g>
  </g>
</svg>
