<svg xmlns="http://www.w3.org/2000/svg" width="44" height="44" viewBox="0 0 44 44">
  <g id="twitter" transform="translate(-255 -5694)">
    <path id="Icon_awesome-twitter" data-name="Icon awesome-twitter" d="M14.613,6.678c.01.145.01.289.01.434a9.433,9.433,0,0,1-9.5,9.5A9.433,9.433,0,0,1,0,15.111a6.906,6.906,0,0,0,.806.041A6.685,6.685,0,0,0,4.95,13.726a3.344,3.344,0,0,1-3.121-2.315,4.21,4.21,0,0,0,.63.052,3.531,3.531,0,0,0,.878-.114A3.339,3.339,0,0,1,.661,8.073V8.031a3.362,3.362,0,0,0,1.509.424A3.343,3.343,0,0,1,1.137,3.99,9.488,9.488,0,0,0,8.02,7.484a3.768,3.768,0,0,1-.083-.765,3.341,3.341,0,0,1,5.777-2.284,6.572,6.572,0,0,0,2.119-.806,3.329,3.329,0,0,1-1.468,1.84,6.692,6.692,0,0,0,1.922-.517,7.176,7.176,0,0,1-1.674,1.726Z" transform="translate(269.019 5706.219)" fill="#fff"/>
    <g id="Ellipse_315" data-name="Ellipse 315" transform="translate(255 5694)" fill="none" stroke="#fff" stroke-width="2">
      <circle cx="22" cy="22" r="22" stroke="none"/>
      <circle cx="22" cy="22" r="21" fill="none"/>
    </g>
  </g>
</svg>
