<svg xmlns="http://www.w3.org/2000/svg" xmlns:xlink="http://www.w3.org/1999/xlink" width="967.04" height="679.28" viewBox="0 0 967.04 679.28">
  <defs>
    <linearGradient id="linear-gradient" x1="-0.12" y1="-0.622" x2="1" y2="1" gradientUnits="objectBoundingBox">
      <stop offset="0" stop-color="#93a5ff"/>
      <stop offset="1" stop-color="#93a5ff" stop-opacity="0"/>
    </linearGradient>
    <clipPath id="clip-path">
      <path id="Path_1417" data-name="Path 1417" d="M286.3,111.98c32.717-18.957,59.226-3.57,59.226,34.2S319.014,229.911,286.3,248.774s-59.226,3.57-59.226-34.2S253.579,130.937,286.3,111.98Z" transform="translate(-227.07 -103.86)" fill="#f5f5f5"/>
    </clipPath>
  </defs>
  <g id="work_pic" transform="translate(-140 -2149.719)">
    <path id="Dotted_Square_1" data-name="Dotted Square 1" d="M234.29,237.665a3.375,3.375,0,1,1,3.375,3.375A3.375,3.375,0,0,1,234.29,237.665Zm-26.032,0a3.375,3.375,0,1,1,3.375,3.375A3.375,3.375,0,0,1,208.258,237.665Zm-26.032,0a3.375,3.375,0,1,1,3.375,3.375A3.375,3.375,0,0,1,182.226,237.665Zm-26.032,0a3.375,3.375,0,1,1,3.375,3.375A3.375,3.375,0,0,1,156.194,237.665Zm-26.032,0a3.375,3.375,0,1,1,3.375,3.375A3.375,3.375,0,0,1,130.161,237.665Zm-26.032,0a3.375,3.375,0,1,1,3.375,3.375A3.375,3.375,0,0,1,104.129,237.665Zm-26.032,0a3.375,3.375,0,1,1,3.375,3.375A3.375,3.375,0,0,1,78.1,237.665Zm-26.032,0a3.375,3.375,0,1,1,3.375,3.375A3.375,3.375,0,0,1,52.064,237.665Zm-26.032,0a3.375,3.375,0,1,1,3.375,3.375A3.375,3.375,0,0,1,26.032,237.665ZM0,237.665a3.375,3.375,0,1,1,3.375,3.375A3.375,3.375,0,0,1,0,237.665ZM234.29,211.633a3.375,3.375,0,1,1,3.375,3.375A3.375,3.375,0,0,1,234.29,211.633Zm-26.032,0a3.375,3.375,0,1,1,3.375,3.375A3.375,3.375,0,0,1,208.258,211.633Zm-26.032,0a3.375,3.375,0,1,1,3.375,3.375A3.375,3.375,0,0,1,182.226,211.633Zm-26.032,0a3.375,3.375,0,1,1,3.375,3.375A3.375,3.375,0,0,1,156.194,211.633Zm-26.032,0a3.375,3.375,0,1,1,3.375,3.375A3.375,3.375,0,0,1,130.161,211.633Zm-26.032,0a3.375,3.375,0,1,1,3.375,3.375A3.375,3.375,0,0,1,104.129,211.633Zm-26.032,0a3.375,3.375,0,1,1,3.375,3.375A3.375,3.375,0,0,1,78.1,211.633Zm-26.032,0a3.375,3.375,0,1,1,3.375,3.375A3.375,3.375,0,0,1,52.064,211.633Zm-26.032,0a3.375,3.375,0,1,1,3.375,3.375A3.375,3.375,0,0,1,26.032,211.633ZM0,211.633a3.375,3.375,0,1,1,3.375,3.375A3.375,3.375,0,0,1,0,211.633ZM234.29,185.6a3.375,3.375,0,1,1,3.375,3.375A3.375,3.375,0,0,1,234.29,185.6Zm-26.032,0a3.375,3.375,0,1,1,3.375,3.375A3.375,3.375,0,0,1,208.258,185.6Zm-26.032,0a3.375,3.375,0,1,1,3.375,3.375A3.375,3.375,0,0,1,182.226,185.6Zm-26.032,0a3.375,3.375,0,1,1,3.375,3.375A3.375,3.375,0,0,1,156.194,185.6Zm-26.032,0a3.375,3.375,0,1,1,3.375,3.375A3.375,3.375,0,0,1,130.161,185.6Zm-26.032,0a3.375,3.375,0,1,1,3.375,3.375A3.375,3.375,0,0,1,104.129,185.6Zm-26.032,0a3.375,3.375,0,1,1,3.375,3.375A3.375,3.375,0,0,1,78.1,185.6Zm-26.032,0a3.375,3.375,0,1,1,3.375,3.375A3.375,3.375,0,0,1,52.064,185.6Zm-26.032,0a3.375,3.375,0,1,1,3.375,3.375A3.375,3.375,0,0,1,26.032,185.6ZM0,185.6a3.375,3.375,0,1,1,3.375,3.375A3.375,3.375,0,0,1,0,185.6ZM234.29,159.568a3.375,3.375,0,1,1,3.375,3.375A3.375,3.375,0,0,1,234.29,159.568Zm-26.032,0a3.375,3.375,0,1,1,3.375,3.375A3.375,3.375,0,0,1,208.258,159.568Zm-26.032,0a3.375,3.375,0,1,1,3.375,3.375A3.375,3.375,0,0,1,182.226,159.568Zm-26.032,0a3.375,3.375,0,1,1,3.375,3.375A3.375,3.375,0,0,1,156.194,159.568Zm-26.032,0a3.375,3.375,0,1,1,3.375,3.375A3.375,3.375,0,0,1,130.161,159.568Zm-26.032,0a3.375,3.375,0,1,1,3.375,3.375A3.375,3.375,0,0,1,104.129,159.568Zm-26.032,0a3.375,3.375,0,1,1,3.375,3.375A3.375,3.375,0,0,1,78.1,159.568Zm-26.032,0a3.375,3.375,0,1,1,3.375,3.375A3.375,3.375,0,0,1,52.064,159.568Zm-26.032,0a3.375,3.375,0,1,1,3.375,3.375A3.375,3.375,0,0,1,26.032,159.568ZM0,159.568a3.375,3.375,0,1,1,3.375,3.375A3.375,3.375,0,0,1,0,159.568ZM234.29,133.536a3.375,3.375,0,1,1,3.375,3.375A3.375,3.375,0,0,1,234.29,133.536Zm-26.032,0a3.375,3.375,0,1,1,3.375,3.375A3.375,3.375,0,0,1,208.258,133.536Zm-26.032,0a3.375,3.375,0,1,1,3.375,3.375A3.375,3.375,0,0,1,182.226,133.536Zm-26.032,0a3.375,3.375,0,1,1,3.375,3.375A3.375,3.375,0,0,1,156.194,133.536Zm-26.032,0a3.375,3.375,0,1,1,3.375,3.375A3.375,3.375,0,0,1,130.161,133.536Zm-26.032,0a3.375,3.375,0,1,1,3.375,3.375A3.375,3.375,0,0,1,104.129,133.536Zm-26.032,0a3.375,3.375,0,1,1,3.375,3.375A3.375,3.375,0,0,1,78.1,133.536Zm-26.032,0a3.375,3.375,0,1,1,3.375,3.375A3.375,3.375,0,0,1,52.064,133.536Zm-26.032,0a3.375,3.375,0,1,1,3.375,3.375A3.375,3.375,0,0,1,26.032,133.536ZM0,133.536a3.375,3.375,0,1,1,3.375,3.375A3.375,3.375,0,0,1,0,133.536ZM234.29,107.5a3.375,3.375,0,1,1,3.375,3.375A3.375,3.375,0,0,1,234.29,107.5Zm-26.032,0a3.375,3.375,0,1,1,3.375,3.375A3.375,3.375,0,0,1,208.258,107.5Zm-26.032,0a3.375,3.375,0,1,1,3.375,3.375A3.375,3.375,0,0,1,182.226,107.5Zm-26.032,0a3.375,3.375,0,1,1,3.375,3.375A3.375,3.375,0,0,1,156.194,107.5Zm-26.032,0a3.375,3.375,0,1,1,3.375,3.375A3.375,3.375,0,0,1,130.161,107.5Zm-26.032,0a3.375,3.375,0,1,1,3.375,3.375A3.375,3.375,0,0,1,104.129,107.5Zm-26.032,0a3.375,3.375,0,1,1,3.375,3.375A3.375,3.375,0,0,1,78.1,107.5Zm-26.032,0a3.375,3.375,0,1,1,3.375,3.375A3.375,3.375,0,0,1,52.064,107.5Zm-26.032,0a3.375,3.375,0,1,1,3.375,3.375A3.375,3.375,0,0,1,26.032,107.5ZM0,107.5a3.375,3.375,0,1,1,3.375,3.375A3.375,3.375,0,0,1,0,107.5ZM234.29,81.471a3.375,3.375,0,1,1,3.375,3.375A3.375,3.375,0,0,1,234.29,81.471Zm-26.032,0a3.375,3.375,0,1,1,3.375,3.375A3.375,3.375,0,0,1,208.258,81.471Zm-26.032,0a3.375,3.375,0,1,1,3.375,3.375A3.375,3.375,0,0,1,182.226,81.471Zm-26.032,0a3.375,3.375,0,1,1,3.375,3.375A3.375,3.375,0,0,1,156.194,81.471Zm-26.032,0a3.375,3.375,0,1,1,3.375,3.375A3.375,3.375,0,0,1,130.161,81.471Zm-26.032,0a3.375,3.375,0,1,1,3.375,3.375A3.375,3.375,0,0,1,104.129,81.471Zm-26.032,0a3.375,3.375,0,1,1,3.375,3.375A3.375,3.375,0,0,1,78.1,81.471Zm-26.032,0a3.375,3.375,0,1,1,3.375,3.375A3.375,3.375,0,0,1,52.064,81.471Zm-26.032,0a3.375,3.375,0,1,1,3.375,3.375A3.375,3.375,0,0,1,26.032,81.471ZM0,81.471a3.375,3.375,0,1,1,3.375,3.375A3.375,3.375,0,0,1,0,81.471ZM234.29,55.439a3.375,3.375,0,1,1,3.375,3.375A3.375,3.375,0,0,1,234.29,55.439Zm-26.032,0a3.375,3.375,0,1,1,3.375,3.375A3.375,3.375,0,0,1,208.258,55.439Zm-26.032,0a3.375,3.375,0,1,1,3.375,3.375A3.375,3.375,0,0,1,182.226,55.439Zm-26.032,0a3.375,3.375,0,1,1,3.375,3.375A3.375,3.375,0,0,1,156.194,55.439Zm-26.032,0a3.375,3.375,0,1,1,3.375,3.375A3.375,3.375,0,0,1,130.161,55.439Zm-26.032,0a3.375,3.375,0,1,1,3.375,3.375A3.375,3.375,0,0,1,104.129,55.439Zm-26.032,0a3.375,3.375,0,1,1,3.375,3.375A3.375,3.375,0,0,1,78.1,55.439Zm-26.032,0a3.375,3.375,0,1,1,3.375,3.375A3.375,3.375,0,0,1,52.064,55.439Zm-26.032,0a3.375,3.375,0,1,1,3.375,3.375A3.375,3.375,0,0,1,26.032,55.439ZM0,55.439a3.375,3.375,0,1,1,3.375,3.375A3.375,3.375,0,0,1,0,55.439ZM234.29,29.407a3.375,3.375,0,1,1,3.375,3.375A3.375,3.375,0,0,1,234.29,29.407Zm-26.032,0a3.375,3.375,0,1,1,3.375,3.375A3.375,3.375,0,0,1,208.258,29.407Zm-26.032,0a3.375,3.375,0,1,1,3.375,3.375A3.375,3.375,0,0,1,182.226,29.407Zm-26.032,0a3.375,3.375,0,1,1,3.375,3.375A3.375,3.375,0,0,1,156.194,29.407Zm-26.032,0a3.375,3.375,0,1,1,3.375,3.375A3.375,3.375,0,0,1,130.161,29.407Zm-26.032,0a3.375,3.375,0,1,1,3.375,3.375A3.375,3.375,0,0,1,104.129,29.407Zm-26.032,0a3.375,3.375,0,1,1,3.375,3.375A3.375,3.375,0,0,1,78.1,29.407Zm-26.032,0a3.375,3.375,0,1,1,3.375,3.375A3.375,3.375,0,0,1,52.064,29.407Zm-26.032,0a3.375,3.375,0,1,1,3.375,3.375A3.375,3.375,0,0,1,26.032,29.407ZM0,29.407a3.375,3.375,0,1,1,3.375,3.375A3.375,3.375,0,0,1,0,29.407ZM234.29,3.375a3.375,3.375,0,1,1,3.375,3.375A3.375,3.375,0,0,1,234.29,3.375Zm-26.032,0a3.375,3.375,0,1,1,3.375,3.375A3.375,3.375,0,0,1,208.258,3.375Zm-26.032,0A3.375,3.375,0,1,1,185.6,6.749,3.375,3.375,0,0,1,182.226,3.375Zm-26.032,0a3.375,3.375,0,1,1,3.375,3.375A3.375,3.375,0,0,1,156.194,3.375Zm-26.032,0a3.375,3.375,0,1,1,3.375,3.375A3.375,3.375,0,0,1,130.161,3.375Zm-26.032,0A3.375,3.375,0,1,1,107.5,6.749,3.375,3.375,0,0,1,104.129,3.375Zm-26.032,0a3.375,3.375,0,1,1,3.375,3.375A3.375,3.375,0,0,1,78.1,3.375Zm-26.032,0a3.375,3.375,0,1,1,3.375,3.375A3.375,3.375,0,0,1,52.064,3.375Zm-26.032,0a3.375,3.375,0,1,1,3.375,3.375A3.375,3.375,0,0,1,26.032,3.375ZM0,3.375A3.375,3.375,0,1,1,3.375,6.749,3.375,3.375,0,0,1,0,3.375Z" transform="translate(866 2829) rotate(-90)" fill="url(#linear-gradient)"/>
    <g id="Mention-amico" transform="translate(89.983 2104.343)">
      <g id="freepik--Floor--inject-59" transform="translate(50.017 383.183)">
        <path id="freepik--SUELO--inject-59" d="M144.777,522.706c126.541,60.3,331.6,60.3,458.139,0s126.383-157.979,0-218.28-331.535-60.285-458.013,0S18.394,462.436,144.777,522.706Z" transform="translate(-50.017 -259.206)" fill="#ebebeb"/>
      </g>
      <g id="freepik--Cloud--inject-59" transform="translate(544.954 152.089)">
        <path id="freepik--nube--inject-59" d="M370.846,159.332l5.814-4.471v-12.8c0-10.126,8.073-21.9,16.856-26.967h0c8.784-5.071,15.908-.964,15.908,9.179v1.848a22.639,22.639,0,0,1,7.362-7.378h0c6.319-3.649,11.453-.7,11.453,6.6v.853l11.627-6.714c4.155-2.4,7.536-.458,7.536,4.344a16.667,16.667,0,0,1-7.536,13.049l-69.021,39.842c-4.155,2.4-7.536.458-7.536-4.344a16.667,16.667,0,0,1,7.536-13.049Z" transform="translate(-363.31 -112.925)" fill="#ebebeb"/>
      </g>
      <g id="freepik--Plants--inject-59" transform="translate(95.384 347.32)">
        <g id="freepik--HOJAS--inject-59" transform="translate(0)">
          <path id="Path_1358" data-name="Path 1358" d="M118.791,397.561c-.822-.142-1.69-.395-2.67-.648a99.78,99.78,0,0,1-9.747-3.16,71.2,71.2,0,0,1-17.836-9.526,28.974,28.974,0,0,1-7.551-7.9,14.376,14.376,0,0,1-1.975-10.537,9.637,9.637,0,0,1,7.362-7.314c1.69-.269,3.444,0,5.134-.3a4.076,4.076,0,0,0,3.649-3.16,5.229,5.229,0,0,0-.758-2.749,127.266,127.266,0,0,1-7.9-17.488,27.267,27.267,0,0,1-.316-16.619,28.168,28.168,0,0,1,8.5-14.013c1.9-1.58,4.518-2.938,6.809-1.943a5.672,5.672,0,0,1,2.938,3.713,22.448,22.448,0,0,1,.537,4.834,41.424,41.424,0,0,0,1.991,10.284,9.273,9.273,0,0,0,3.381,5.229c2.938,1.833,6.983.395,10.111,1.88s4.2,4.9,4.344,8.12-.506,6.477-.142,9.684a5.956,5.956,0,0,0,.932,2.844,12.529,12.529,0,0,0,2.986,2.354,12.639,12.639,0,0,1,4.581,9.921,34.251,34.251,0,0,1-2.133,11.059,97.948,97.948,0,0,0-3.16,15.134A18.167,18.167,0,0,1,124,395.807a4.929,4.929,0,0,1-5.213,1.754Z" transform="translate(-78.734 -198.61)" fill="#8c9efc"/>
          <path id="Path_1359" data-name="Path 1359" d="M117.331,392.865a.537.537,0,0,1-.458-.269C98.437,361.506,92.607,339.61,90.948,326.7c-1.817-14.06.743-20.648.853-20.916a.543.543,0,1,1,1.011.395c0,.111-2.559,6.73-.774,20.537,1.58,12.78,7.488,34.487,25.766,65.34a.537.537,0,0,1-.19.742.648.648,0,0,1-.284.063Z" transform="translate(-72.029 -196.537)" fill="#fff"/>
          <path id="Path_1360" data-name="Path 1360" d="M111.9,353.436h0c-22.465-2.464-28.815-9.842-29.084-10.158a.537.537,0,0,1,0-.758.521.521,0,0,1,.758,0h0c0,.079,6.414,7.362,28.357,9.779a.553.553,0,0,1,0,1.09Z" transform="translate(-76.458 -175.133)" fill="#fff"/>
          <path id="Path_1361" data-name="Path 1361" d="M97.359,350.152a.553.553,0,0,1-.332-.111.537.537,0,0,1-.095-.758c7.125-9.368,7.583-24.724,7.6-24.882a.537.537,0,1,1,1.074.032c0,.648-.474,15.8-7.8,25.5A.553.553,0,0,1,97.359,350.152Z" transform="translate(-68.25 -185.846)" fill="#fff"/>
          <path id="Path_1362" data-name="Path 1362" d="M394.153,339.436c2.18-14.692,2.212-32.623-8.578-58.816s-7.441-39.921,4.123-43.665,37.188,16.145,36.24,49.59c-.932,32.291-22.749,58.958-22.749,58.958Z" transform="translate(95.37 -236.505)" fill="#8c9efc"/>
          <path id="Path_1363" data-name="Path 1363" d="M394.153,339.436c2.18-14.692,2.212-32.623-8.578-58.816s-7.441-39.921,4.123-43.665,37.188,16.145,36.24,49.59c-.932,32.291-22.749,58.958-22.749,58.958Z" transform="translate(95.37 -236.505)" opacity="0.1"/>
          <path id="Path_1364" data-name="Path 1364" d="M394.63,340.885a.49.49,0,0,1-.205,0,.521.521,0,0,1-.284-.711c.111-.269,11.927-27.867,11.058-52.923-.979-28.831-16.951-44.692-17.109-44.85a.542.542,0,1,1,.758-.774c.158.158,16.43,16.288,17.378,45.593.869,25.277-11.059,53.113-11.153,53.381a.553.553,0,0,1-.442.284Z" transform="translate(100.533 -233.625)" fill="#fff"/>
          <path id="Path_1365" data-name="Path 1365" d="M389,337.532s6.1-35.514,27.741-55.925,57.726-24.3,69.037-13.4,4.06,21.5-11.88,25.182c-18.01,4.155-29.052,11.422-18.01,16.983,10.253,5.15,9.1,16.319-1.58,21.675-17.062,8.563-47.868.411-55.293,17.251Z" transform="translate(101.155 -221.568)" fill="#8c9efc"/>
          <path id="Path_1366" data-name="Path 1366" d="M392.1,340.472h-.174a.553.553,0,0,1-.332-.7,111.818,111.818,0,0,1,22.623-37.552,104.851,104.851,0,0,1,27.014-21,98.451,98.451,0,0,1,32.259-11.058.553.553,0,0,1,.6.49.537.537,0,0,1-.474.6A97.348,97.348,0,0,0,441.7,282.319c-15.8,8.578-37.236,25.593-49.132,57.9A.569.569,0,0,1,392.1,340.472Z" transform="translate(102.64 -216.987)" fill="#fff"/>
          <path id="Path_1367" data-name="Path 1367" d="M399.052,302.367a.545.545,0,0,1-.19-1.058c18.468-6.446,44.945-3.065,45.214-3.033a.542.542,0,0,1-.142,1.074c-.253,0-26.493-3.381-44.708,2.986a.347.347,0,0,1-.174.032Z" transform="translate(106.664 -201.221)" fill="#fff"/>
        </g>
      </g>
      <g id="freepik--social-media--inject-59" transform="translate(78.932 67.097)">
        <g id="freepik--redes-sociales--inject-59" transform="translate(0)">
          <path id="Path_1368" data-name="Path 1368" d="M147.515,76.305a15.545,15.545,0,0,0-7.03-12.18l-5.735-3.318a15.529,15.529,0,0,0-14.06,0L75.334,86.985A14.55,14.55,0,0,0,70.216,92.5a14.961,14.961,0,0,0-1.9,5.829v53.207a15.545,15.545,0,0,0,7.046,12.18l5.719,3.318.727.379.269.111.49.205.379.142.411.142.458.126.348.095.537.126h.269l.648.111h.126a15.276,15.276,0,0,0,9.479-1.5l45.261-26.114a15.577,15.577,0,0,0,7.046-12.2Z" transform="translate(-68.32 -59.125)" fill="#8c9efc"/>
          <path id="Path_1369" data-name="Path 1369" d="M89.457,103.683a15.8,15.8,0,0,0-1.8,4.329,15.8,15.8,0,0,1,6.777-9.589l45.356-26.177c3.886-2.243,7.046-.427,7.046,4.06a15.545,15.545,0,0,0-7.046-12.18l-5.735-3.318a15.529,15.529,0,0,0-14.06,0L74.639,86.985A14.55,14.55,0,0,0,69.52,92.5l.142-.253Z" transform="translate(-67.624 -59.125)" fill="#fff" opacity="0.4"/>
          <path id="Path_1370" data-name="Path 1370" d="M93.676,155.541l-.332.095h0l-.569.111h-1.09a3.4,3.4,0,0,1-1.8-.679h0l-.253-.237-.142-.126-.19-.237-.158-.205-.158-.253-.142-.253a.393.393,0,0,0-.111-.269,2.432,2.432,0,0,1-.126-.3l-.253-.253v-.6a4.006,4.006,0,0,1,0-.458,1.232,1.232,0,0,1,0-.253q0-.355,0-.758v-52.4a10.319,10.319,0,0,1,.142-1.69h0a1.139,1.139,0,0,1,.126-.632v-.253a15.8,15.8,0,0,1,1.738-4.329l-20-11.469-.142.253a14.961,14.961,0,0,0-1.9,5.829V139.38a15.545,15.545,0,0,0,7.046,12.18l5.719,3.318.727.379.269.111.49.205.379.142.411.142.458.126.348.095.537.126h.269l.648.111h.126a16.224,16.224,0,0,0,7.931-.774Z" transform="translate(-68.32 -46.97)" opacity="0.1"/>
          <path id="Path_1371" data-name="Path 1371" d="M116.224,112.212a52.133,52.133,0,0,0,4.55-21.517,40.473,40.473,0,0,0,3.712-7.283,26.858,26.858,0,0,1-4.281,4.028A19.779,19.779,0,0,0,123.476,80a29.149,29.149,0,0,1-4.739,5.15,4.566,4.566,0,0,0-5.45,0c-4.739,2.78-8.341,10.806-7.251,16.4-6.193,3.16-11.69,2.37-15.356-1.58-1.959,5.592-1.011,10.9,2.306,11.927a5.277,5.277,0,0,1-3.381.711c0,4.739,2.386,7.536,5.972,6.414a9.036,9.036,0,0,1-3.365,2.117c.948,3.4,3.7,4.739,6.967,2.891A25.75,25.75,0,0,1,88.12,134.5c3.286.916,7.2.3,11.422-2.133,7.362-4.25,13.017-11.943,16.635-20.269" transform="translate(-56.84 -47.022)" fill="#fff"/>
          <path id="Path_1372" data-name="Path 1372" d="M147.509,196.952a15.545,15.545,0,0,0-7.03-12.117l-5.735-3.318a15.529,15.529,0,0,0-14.06,0l-45.34,26.177a14.549,14.549,0,0,0-5.119,5.513,14.961,14.961,0,0,0-1.9,5.829v53.207a15.545,15.545,0,0,0,7,12.117l5.719,3.318.727.363.269.126.49.205.379.142.411.142.458.126.348.095.537.126h.269l.648.111h.126a15.276,15.276,0,0,0,9.479-1.58L140.479,261.5a15.577,15.577,0,0,0,7.046-12.2Z" transform="translate(-68.314 10.861)" fill="#8c9efc"/>
          <path id="Path_1373" data-name="Path 1373" d="M89.451,224.33a15.8,15.8,0,0,0-1.738,4.329,15.8,15.8,0,0,1,6.714-9.589l45.356-26.177c3.886-2.243,7.046-.427,7.046,4.06a15.545,15.545,0,0,0-7.046-12.117l-5.735-3.318a15.529,15.529,0,0,0-14.06,0l-45.34,26.177a14.55,14.55,0,0,0-5.119,5.513l.142-.253Z" transform="translate(-67.618 10.861)" fill="#fff" opacity="0.4"/>
          <path id="Path_1374" data-name="Path 1374" d="M93.577,276.2l-.332.095h0a3.684,3.684,0,0,1-.569.126h-1.09a3.4,3.4,0,0,1-1.8-.679h0l-.253-.237-.142-.126-.19-.253-.158-.19-.158-.253-.142-.253a.291.291,0,0,0-.111-.269,1.878,1.878,0,0,1-.126-.316l-.095-.269-.095-.379v-.269a4.008,4.008,0,0,1,0-.458,1.233,1.233,0,0,1,0-.253v-53.1a10.317,10.317,0,0,1,.142-1.69h0a1.113,1.113,0,0,1,.126-.632v-.253a15.8,15.8,0,0,1,1.738-4.329L70.528,200.78l-.142.253a14.961,14.961,0,0,0-1.9,5.829v53.207a15.545,15.545,0,0,0,6.746,12.149l5.719,3.318.727.363.269.126.49.205.379.142.411.142.458.126.348.095.537.126h.269l.648.111h.126A16.224,16.224,0,0,0,93.577,276.2Z" transform="translate(-68.221 23.005)" opacity="0.1"/>
          <path id="Path_1375" data-name="Path 1375" d="M106.047,209.512c4.645-2.686,5.2-2.97,7.03-3.918a7.9,7.9,0,0,1,3.16-1.074,2.749,2.749,0,0,1,1.991.585,3.681,3.681,0,0,1,1.311,1.912,12.812,12.812,0,0,1,.6,3.965c.079,2.385.095,3.16.095,9.3s0,6.919-.095,9.479a21.17,21.17,0,0,1-.6,4.645,13.982,13.982,0,0,1-1.311,3.412,12.481,12.481,0,0,1-1.991,2.891,15.337,15.337,0,0,1-3.16,2.654c-1.833,1.169-2.385,1.58-7.03,4.186s-5.182,2.986-7.014,3.934a7.9,7.9,0,0,1-3.16,1.058,2.78,2.78,0,0,1-2.006-.585,3.745,3.745,0,0,1-1.3-1.912,12.765,12.765,0,0,1-.6-3.949c0-2.4-.111-3.16-.111-9.3s0-6.935.111-9.479a21.5,21.5,0,0,1,.6-4.739,14.883,14.883,0,0,1,1.3-3.412,13.254,13.254,0,0,1,2.006-2.891,14.929,14.929,0,0,1,3.16-2.654c1.833-1.169,2.385-1.58,7.014-4.186m0-4.171c-4.739,2.717-5.308,3.16-7.156,4.265a20.113,20.113,0,0,0-4.218,3.523,19.572,19.572,0,0,0-3.16,4.439,23.081,23.081,0,0,0-2.006,5.261,28.011,28.011,0,0,0-.806,6.1c0,2.512-.111,3.318-.111,9.605s0,7.077.111,9.479a16.979,16.979,0,0,0,.8,5.163,5.893,5.893,0,0,0,2.007,2.941,4.376,4.376,0,0,0,3.16.9,10.49,10.49,0,0,0,4.218-1.359c1.848-.964,2.433-1.28,7.156-4s5.308-3.16,7.172-4.281a20.1,20.1,0,0,0,7.3-7.9,22.73,22.73,0,0,0,1.991-5.261,27.758,27.758,0,0,0,.821-6.082c0-2.528.095-3.333.095-9.621s0-7.062-.095-9.479a16.682,16.682,0,0,0-.821-5.15,5.972,5.972,0,0,0-1.991-2.954,4.345,4.345,0,0,0-3.16-.885,10.237,10.237,0,0,0-4.218,1.359c-1.864.948-2.449,1.264-7.172,4m0,11.264c-4.929,2.844-8.926,10.474-8.926,17.046s4,9.589,8.926,6.746,8.926-10.474,8.926-17.046-4-9.589-8.926-6.746m0,19.621c-3.16,1.848-5.782-.111-5.782-4.376s2.591-9.226,5.782-11.059,5.8.111,5.8,4.392-2.591,9.21-5.8,11.059m11.359-26.651c0-1.58-.932-2.243-2.085-1.58a4.992,4.992,0,0,0-2.085,4c0,1.58.932,2.228,2.085,1.58a4.992,4.992,0,0,0,2.085-3.981" transform="translate(-56.568 22.519)" fill="#fff"/>
          <path id="Path_1376" data-name="Path 1376" d="M197.446,119.815a15.529,15.529,0,0,0-6.967-12.18l-5.735-3.318a15.561,15.561,0,0,0-14.076,0l-45.34,26.177a15.909,15.909,0,0,0-7,11.343q0,.427,0,.853v52.354a15.529,15.529,0,0,0,7.03,12.18l5.735,3.318.727.379.269.111.49.205.363.142.427.142.442.126.363.095.537.126h.269l.648.111h.126a15.292,15.292,0,0,0,9.479-1.5l45.245-26.114a15.561,15.561,0,0,0,7.03-12.2Z" transform="translate(-39.325 -33.898)" fill="#8c9efc"/>
          <path id="Path_1377" data-name="Path 1377" d="M139.4,147.193a16.4,16.4,0,0,0-1.754,4.329,15.8,15.8,0,0,1,6.73-9.589l45.4-26.177c3.886-2.243,7.03-.427,7.03,4.06a15.529,15.529,0,0,0-7.03-12.18l-5.735-3.318a15.561,15.561,0,0,0-14.076,0l-45.34,26.177a14.629,14.629,0,0,0-5.1,5.514l.126-.253Z" transform="translate(-38.629 -33.898)" fill="#fff" opacity="0.4"/>
          <path id="Path_1378" data-name="Path 1378" d="M143.588,199.039l-.348.095h0a3.487,3.487,0,0,1-.553.126h-1.216a3.381,3.381,0,0,1-1.785-.679h0l-.253-.237-.142-.126-.205-.253-.142-.19a1.357,1.357,0,0,1-.158-.253l-.142-.253a.286.286,0,0,0-.126-.269l-.111-.3-.095-.284a.913.913,0,0,0-.095-.379,1.339,1.339,0,0,1,0-.269,4,4,0,0,1,0-.458,1.234,1.234,0,0,1,0-.253,5.953,5.953,0,0,1,0-.758V141.961a12.4,12.4,0,0,1,.142-1.69h0a1.249,1.249,0,0,1,.111-.632,1.738,1.738,0,0,0,0-.253,16.4,16.4,0,0,1,1.754-4.329L120.412,123.62l-.126.253a14.708,14.708,0,0,0-1.9,5.829q0,.427,0,.853V182.91a15.529,15.529,0,0,0,7.03,12.18l5.735,3.318.727.379.269.111.49.205.363.142.427.142.442.126.363.095.537.126h.269l.648.111h.126a16.225,16.225,0,0,0,7.773-.806Z" transform="translate(-39.29 -21.731)" opacity="0.1"/>
          <path id="Path_1379" data-name="Path 1379" d="M147.965,180.558l7.567-4.376V150.905l5.276-3.049.553-8.784-5.829,3.365v-4.818c0-1.991.3-2.954,1.738-3.776l4.092-2.37V122.69l-5.229,3.033a15.34,15.34,0,0,0-8.168,14.345v6.809L144,149.1v8.562l3.934-2.259Z" transform="translate(-24.441 -22.271)" fill="#fff"/>
        </g>
      </g>
      <g id="freepik--Device--inject-59" transform="translate(131.76 341.693)">
        <g id="freepik--MÓVIL--inject-59">
          <path id="freepik--sombra-movil--inject-59" d="M104.6,431.413,285.853,536.027a15.166,15.166,0,0,0,13.744,0L582.253,372.85c3.791-2.2,3.791-5.735,0-7.9L401,260.274a15.134,15.134,0,0,0-13.728,0L104.6,423.514C100.812,425.662,100.812,429.2,104.6,431.413Z" transform="translate(-101.76 -218.051)" fill="#e0e0e0"/>
          <path id="Path_1380" data-name="Path 1380" d="M108.227,414.7,284.342,516.4a15.356,15.356,0,0,0,13.886,0L577.456,355.21c3.839-2.212,3.839-5.8,0-8.01L401.325,245.509a15.355,15.355,0,0,0-13.886,0l-279.212,161.3C104.388,408.938,104.388,412.525,108.227,414.7Z" transform="translate(-99.68 -226.619)" fill="#37474f"/>
          <path id="Path_1381" data-name="Path 1381" d="M285.836,456.39,109.721,354.667c-3.428-1.975-3.792-5.055-1.09-7.267a15.545,15.545,0,0,0-5.861,11.28V365.2a15.371,15.371,0,0,0,6.951,12.038L285.836,478.918a14.218,14.218,0,0,0,6.951,1.659V458.049a14.217,14.217,0,0,1-6.951-1.659Z" transform="translate(-101.174 -166.582)" fill="#455a64"/>
          <path id="Path_1382" data-name="Path 1382" d="M509.213,339.566a15.324,15.324,0,0,0,6.935-12.022V321.02a15.53,15.53,0,0,0-5.861-11.28c2.7,2.212,2.354,5.292-1.074,7.267L229.985,478.225a14.217,14.217,0,0,1-6.935,1.659v22.559a14.218,14.218,0,0,0,6.935-1.659Z" transform="translate(-31.437 -188.417)" fill="#263238"/>
          <path id="Path_1383" data-name="Path 1383" d="M168.448,386.661a21.28,21.28,0,0,0,19.289,0c5.324-3.16,5.324-8.057,0-11.138a21.391,21.391,0,0,0-19.289,0C163.187,378.6,163.187,383.6,168.448,386.661Z" transform="translate(-65.382 -151.608)" fill="#263238"/>
          <path id="Path_1384" data-name="Path 1384" d="M298.5,487.153l-168.58-97.394c-2.291-1.327-2.291-3.491,0-4.818L349.511,258.115a9.21,9.21,0,0,1,8.325,0l168.58,97.394c2.307,1.327,2.307,3.476,0,4.739L306.826,487.09a9.21,9.21,0,0,1-8.325.063Z" transform="translate(-86.429 -218.925)" fill="#fff"/>
          <path id="Path_1385" data-name="Path 1385" d="M340.754,282.861a5.418,5.418,0,0,0,4.882,0,1.58,1.58,0,0,0,0-2.828,5.419,5.419,0,0,0-4.882,0C339.4,280.807,339.4,282.071,340.754,282.861Z" transform="translate(36.216 -205.977)" fill="#263238"/>
          <path id="Path_1386" data-name="Path 1386" d="M346.064,298.13a10.837,10.837,0,0,0,9.763,0c2.7-1.58,2.7-4.092,0-5.64a10.743,10.743,0,0,0-9.763,0C343.362,293.976,343.362,296.566,346.064,298.13Z" transform="translate(38.71 -199.098)" fill="#263238"/>
          <path id="Path_1387" data-name="Path 1387" d="M355.818,297.962c1.8-1.027,1.706-2.765-.221-3.871l-32.133-18.563a7.441,7.441,0,0,0-6.73-.126c-1.8,1.043-1.706,2.78.221,3.886l32.133,18.563a7.441,7.441,0,0,0,6.73.111Z" transform="translate(22.132 -208.756)" fill="#263238"/>
          <path id="Path_1388" data-name="Path 1388" d="M267.125,280.371c-2.306,1.327-2.306,3.476,0,4.739l128.437,74.171a9.242,9.242,0,0,0,8.341,0L432.339,342.9,295.561,263.91Z" transform="translate(-6.886 -214.989)" fill="#ebebeb"/>
          <path id="Path_1389" data-name="Path 1389" d="M275.211,284.77l-10.253-5.908a3.049,3.049,0,0,0-2.765,0l-6.461,3.728c-.774.442-.774,1.153,0,1.58l.885.521-3.27,1.738c-.379.205-.348.332.095.3l5.75-.553,6.793,3.918a3.16,3.16,0,0,0,2.78,0l6.446-3.728a.853.853,0,0,0,0-1.6Z" transform="translate(-14.024 -206.512)" fill="#ebebeb"/>
          <path id="Path_1390" data-name="Path 1390" d="M269.577,295.513l-.758-1.58c-.979-2.07-1.58-4.882,1.264-6.509a7.694,7.694,0,0,1,6.951,0c1.485.853,1.817,2.133,1,3.16a7.661,7.661,0,0,1,5.513.569,2.1,2.1,0,0,1,0,4c-2.78,1.58-7.646,1.3-11.232.743Z" transform="translate(-5.372 -201.836)" fill="#ebebeb"/>
          <path id="Path_1391" data-name="Path 1391" d="M180.535,350.691l128.453,74.171a9.242,9.242,0,0,0,8.341,0l100.032-57.773c2.291-1.327,2.291-3.476,0-4.739L288.909,288.115a9.242,9.242,0,0,0-8.341,0L180.535,345.888C178.228,347.215,178.228,349.364,180.535,350.691Z" transform="translate(-57.09 -201.531)" fill="#ebebeb"/>
          <path id="Path_1392" data-name="Path 1392" d="M188.664,334.762l-10.3-5.924a3.16,3.16,0,0,0-2.78,0l-6.461,3.728a.853.853,0,0,0,0,1.58l.9.521-3.27,1.722c-.395.205-.348.348,0,.3l5.75-.537,6.793,3.918a3.16,3.16,0,0,0,2.78,0l6.461-3.744a.837.837,0,0,0,.126-1.564Z" transform="translate(-64.24 -177.531)" fill="#ebebeb"/>
          <path id="Path_1393" data-name="Path 1393" d="M182.953,345.5l-.742-1.58c-1-2.07-1.58-4.882,1.264-6.525a7.662,7.662,0,0,1,6.935,0c1.58.869,1.833,2.148,1,3.16a7.9,7.9,0,0,1,5.529.569,2.117,2.117,0,0,1,0,4.013c-2.78,1.58-7.646,1.3-11.248.742Z" transform="translate(-55.59 -172.864)" fill="#ebebeb"/>
          <path id="Path_1394" data-name="Path 1394" d="M166.257,338.105a9.242,9.242,0,0,1,8.341,0L303.035,412.26c2.307,1.327,2.307,3.491,0,4.818l-26.209,15.134L140.08,353.224Z" transform="translate(-79.542 -172.548)" fill="#ebebeb"/>
          <path id="Path_1395" data-name="Path 1395" d="M273.833,326.93,200.72,346.567h0l95.593,55.2a9.242,9.242,0,0,0,8.341,0l2.07-1.2,41.248-60.522-87.6,17.188Z" transform="translate(-44.384 -178.45)" fill="#e0e0e0"/>
          <path id="Path_1396" data-name="Path 1396" d="M298.994,307.546,265.36,288.115a9.242,9.242,0,0,0-8.341,0l-37.6,21.722c1.722,3.27,5.277,6.319,10.664,8.957,15.8,7.551,41.517,7.551,57.362,0C294.081,315.635,297.92,311.654,298.994,307.546Z" transform="translate(-33.542 -201.531)" fill="#e0e0e0"/>
          <path id="Path_1397" data-name="Path 1397" d="M518.612,331.823l-168.6-97.378a9.211,9.211,0,0,0-8.326,0L122.1,361.271c-2.291,1.327-2.291,3.476,0,4.739l35.64,20.537,133,76.825a9.21,9.21,0,0,0,8.326,0l197.663-114.2L518.6,336.531C520.919,335.315,520.919,333.15,518.612,331.823Z" transform="translate(-90.963 -232.649)" fill="#fff" opacity="0.2"/>
          <path id="Path_1398" data-name="Path 1398" d="M519.318,331.422l-139.4-80.569-29.195-16.809a10.016,10.016,0,0,0-9.131,0L122,360.87a3.318,3.318,0,0,0,0,6.193l35.64,20.537,133.05,76.873a9.984,9.984,0,0,0,9.131,0l197.648-114.2,21.88-12.638a3.333,3.333,0,0,0,0-6.208Zm-.806,4.818-21.88,12.638-197.648,114.2a8.436,8.436,0,0,1-7.536,0l-133-76.809-35.624-20.537a1.769,1.769,0,0,1,0-3.428L342.413,235.482a8.484,8.484,0,0,1,7.536,0l29.21,16.825,139.4,80.569a1.769,1.769,0,0,1,0,3.428Z" transform="translate(-91.258 -232.943)" fill="#fff"/>
        </g>
      </g>
      <g id="freepik--speech-bubble--inject-59" transform="translate(290.008 45.376)">
        <path id="Path_1399" data-name="Path 1399" d="M395.676,45.951c2.322-1.343,4.218-.253,4.218,2.433V358.955a9.368,9.368,0,0,1-4.218,7.314l-121.2,69.985-14.218,47.394c-1.28,4.3-3.839,4.487-5.7.395l-13.017-28.736-35.387,20.427c-2.322,1.343-4.218.253-4.218-2.433V162.729a9.337,9.337,0,0,1,4.218-7.314Z" transform="translate(-201.93 -45.376)" fill="#8c9efc"/>
        <path id="Path_1400" data-name="Path 1400" d="M343.6,198.925a12.8,12.8,0,0,1-5.987,9.937l-66.588,38.452c-3.3,1.9-5.987.553-5.987-3.033a12.859,12.859,0,0,1,5.987-9.937l66.62-38.436C340.933,194,343.6,195.355,343.6,198.925Z" transform="translate(-165.339 41.399)" fill="#fff"/>
        <path id="Path_1401" data-name="Path 1401" d="M331.687,223.235a12.844,12.844,0,0,1-5.987,9.937l-55.308,31.975c-3.3,1.912-5.972.553-5.972-3.033a12.8,12.8,0,0,1,5.972-9.921l55.372-31.975C329.065,218.306,331.687,219.665,331.687,223.235Z" transform="translate(-165.699 55.493)" fill="#fff"/>
        <path id="Path_1402" data-name="Path 1402" d="M259.968,277.313l-.142-1.864c-3.017,7.615-7.567,13.081-12.638,16-8.957,5.182-16.967.584-16.967-13.128,0-12.923,6.319-27.093,16.161-32.733,6.461-3.728,10.869-.979,11.6.648v-3.16c0-1.754,1.785-4.2,3.965-5.466s3.981-.111,3.981,2.591v29.305c0,3.728,1.39,4.487,3.365,3.333,3.6-2.069,6.92-10.932,6.92-21.027,0-19.495-10.221-28.578-26.525-19.163-15.277,8.815-27.394,31.09-27.394,50.553,0,19.1,11.453,26.383,26.446,17.741a44.344,44.344,0,0,0,11.28-10.032c1.706-2.085,3.57-2.717,4.392-1.232s.316,4.55-1.374,6.635a57.692,57.692,0,0,1-14.218,12.765c-18.657,10.758-32.765,1.374-32.765-22.228,0-24.108,14.771-51.138,33.713-62.086s32.828-1.216,32.828,23.176c0,14.787-5.8,27.741-14.029,32.48C264.012,282.921,260.774,282.337,259.968,277.313Zm-21.153-4.439c0,7.551,3.665,11.69,9.258,8.468s9.479-11.5,9.479-19.131c0-7.346-3.744-11.059-9.558-7.709C242.48,257.629,238.815,265.638,238.815,272.874Z" transform="translate(-193.743 56.045)" fill="#fff"/>
      </g>
      <g id="freepik--Character--inject-59" transform="translate(329.723 137.769)">
        <path id="Path_1403" data-name="Path 1403" d="M286.3,111.98c32.717-18.957,59.226-3.57,59.226,34.2S319.014,229.911,286.3,248.774s-59.226,3.57-59.226-34.2S253.579,130.937,286.3,111.98Z" transform="translate(-227.07 -103.86)" fill="#fff"/>
        <path id="Path_1404" data-name="Path 1404" d="M286.3,111.98c32.717-18.957,59.226-3.57,59.226,34.2S319.014,229.911,286.3,248.774s-59.226,3.57-59.226-34.2S253.579,130.937,286.3,111.98Z" transform="translate(-227.07 -103.86)" fill="#f5f5f5"/>
        <g id="Group_145" data-name="Group 145" clip-path="url(#clip-path)">
          <path id="Path_1405" data-name="Path 1405" d="M254.091,140.75a10.6,10.6,0,0,0-6.761,4.2c-2.907,3.744-2.307,9.084,0,21.106l8.989-1.374Z" transform="translate(-216.461 -82.472)" fill="#263238"/>
          <path id="Path_1406" data-name="Path 1406" d="M286.039,130.829a17.377,17.377,0,0,0,5.624-2.654c2.765-2.322,3.476.632,1.959,3.76a18.5,18.5,0,0,1-10.411,9.732c-.095-.379-2.591-6.319-2.591-6.319Z" transform="translate(-196.022 -90.245)" fill="#263238"/>
          <path id="Path_1407" data-name="Path 1407" d="M264.016,186.461s-16.746,10.806-20.379,14.613-5.134,15.672-6.477,30.19c0,0,19.068,8.041,48.974-6.761s32.607-26.509,32.607-26.509-3.87-17.583-5.308-22.465c-1.817-6.177-5.324-10.632-25.719-1.374Z" transform="translate(-221.22 -66.176)" fill="#263238"/>
          <path id="Path_1408" data-name="Path 1408" d="M259.153,171.038c-1.343,1.153-3.239-.9-4.882-2.18s-7.014-2.2-9.7,4.171,3.475,12.465,7.109,14.029a6.951,6.951,0,0,0,7.472-1.359l.948,23.934s4.739,8.2,17.694,6.493,10.253-14.724,6.019-18.8V192.4s6.683-.442,9.826-2.117c1.69-.9,5.7-6.84,8.294-12.97a53.444,53.444,0,0,0,3.444-36.193c-4.629-18.452-25.782-13.381-38.389-2.07S259.153,171.038,259.153,171.038Z" transform="translate(-217.305 -89.347)" fill="#ffa8a7"/>
          <path id="Path_1409" data-name="Path 1409" d="M309.882,118.666c-1.137-3.728-1.833-3.065-10.98,3.365a72.89,72.89,0,0,1-23.033,10.79c-6.446,1.959-15.261,3.507-19.795,9.479a13.871,13.871,0,0,0-2.812,8.957,3.16,3.16,0,0,0-1.359-.743c-2.228-.6-4.961,1.027-6.114,3.649l7.9,2.1c-.616,4.55-2.385,18.594-.458,19.826,1.659,1.058,4.2,4.613,4.882,4.423,2.259-.648,3.16-10.664,4.392-16.73,1.343-6.9,1.864-9.479,4.344-9.763a139.936,139.936,0,0,0,23.7-5.893c8.531-3.333,10.98-6.161,10.98-6.161l4.55-2.891A25.5,25.5,0,0,0,309.882,118.666Z" transform="translate(-216.216 -96.597)" fill="#263238"/>
          <path id="Path_1410" data-name="Path 1410" d="M277.192,170.731s-11.959.806-16.13-.3a9.352,9.352,0,0,1-5.782-4.171,13.681,13.681,0,0,0,3.286,5.861c3.049,3.16,18.626,1.8,18.626,1.8Z" transform="translate(-210.714 -67.682)" fill="#f28f8f"/>
          <path id="Path_1411" data-name="Path 1411" d="M267.283,160.3l5.466.585a3.839,3.839,0,0,1-3.712,2.812C267.519,163.539,266.745,162.022,267.283,160.3Z" transform="translate(-203.854 -71.137)" fill="#f28f8f"/>
          <path id="Path_1412" data-name="Path 1412" d="M272.22,146.8l.79,14.2,7.536-4.566Z" transform="translate(-200.892 -78.964)" fill="#f28f8f"/>
          <path id="Path_1413" data-name="Path 1413" d="M269.088,150.715a3.381,3.381,0,0,1-2.385,3.16,1.817,1.817,0,0,1-2.4-1.848,3.4,3.4,0,0,1,2.4-3.16,1.8,1.8,0,0,1,2.385,1.848Z" transform="translate(-205.486 -77.824)" fill="#263238"/>
          <path id="Path_1414" data-name="Path 1414" d="M267.71,145.071l-5.119,4.2a3.649,3.649,0,0,1,1.2-4.408,2.528,2.528,0,0,1,3.918.205Z" transform="translate(-206.651 -80.569)" fill="#263238"/>
          <path id="Path_1415" data-name="Path 1415" d="M282.6,143.442,277.86,141.1a3.365,3.365,0,0,1,4.076-1.722,2.8,2.8,0,0,1,.664,4.06Z" transform="translate(-197.622 -83.363)" fill="#263238"/>
          <path id="Path_1416" data-name="Path 1416" d="M281.758,146.885a3.412,3.412,0,0,1-2.385,3.16,1.817,1.817,0,0,1-2.4-1.848,3.4,3.4,0,0,1,2.4-3.16,1.8,1.8,0,0,1,2.385,1.848Z" transform="translate(-198.14 -80.045)" fill="#263238"/>
        </g>
      </g>
    </g>
  </g>
</svg>
